<svg xmlns="http://www.w3.org/2000/svg" viewBox="200 150 800 700">
  <path fill="#fff" d="M991,460.892L991,467.417C990.891,471.541 990.574,475.688 990.043,479.868C985.994,511.733 969.382,546.346 934.452,588.386C910.036,617.773 886.483,628.622 864.884,628.983C843.104,629.347 822.351,618.772 803.15,601.339C781.514,581.694 761.573,553.12 743.353,526.84C732.706,511.483 722.691,496.992 712.824,486.256C706.296,479.154 700.646,473.227 694.144,472.875C688.497,472.57 684.012,477.895 677.96,486.659C667.609,501.651 656.963,525.889 645.189,561.882C624.028,626.57 594.224,674.799 567.479,713.734C518.847,784.532 463.748,816.88 412.069,822.169C406.628,822.726 401.22,823 395.854,823C348.855,823 305.12,801.988 271.212,766.077C230.671,723.142 204,658.105 204,583.15C204,502.498 234.88,410.363 312.59,321.927C417.276,202.792 515.293,156.353 603.237,156.003C603.77,156.001 604.303,156 604.836,156C760.712,156 874.851,246.86 934.732,332.382C968.829,381.081 989.926,420.198 991,460.892ZM429.775,332.043C368.872,386.834 339.368,425.638 310.535,510.048C288.666,574.07 296.348,629.231 331.119,679.616C353.445,711.967 375.334,727.662 397.28,730.179C418.739,732.64 439.297,722.479 458.566,706.838C503.108,670.68 540.149,605.196 561.946,562.113C591.8,503.102 616.674,424.109 619.608,360.732C621.284,324.538 616.936,293.587 597.836,278.396C575.999,261.028 548.344,265.774 510.267,279.007C482.05,288.814 466.82,298.716 429.775,332.043ZM837.246,342.426C803.429,308.395 771.489,288.698 746.968,279.148C733.294,273.823 722.532,271.555 715.878,272.522C714.92,272.661 714.747,273.573 714.588,274.515C714.347,275.942 714.254,277.489 714.247,279.137C714.228,284.039 714.981,289.584 716.186,295.564C723.559,332.177 747.03,381.749 757.783,409.859C767.355,434.879 801.075,501.32 839.443,528.626C848.906,535.361 858.483,539.775 868.084,537.94C878.041,536.037 886.981,527.525 895.925,512.194C927.84,457.492 909.454,415.088 837.246,342.426Z"/>
</svg>
