<?xml version="1.0" encoding="UTF-8" standalone="no"?>
<!DOCTYPE svg PUBLIC "-//W3C//DTD SVG 1.1//EN" "http://www.w3.org/Graphics/SVG/1.1/DTD/svg11.dtd">
<svg width="100%" height="100%" viewBox="0 0 8199 1886" version="1.1" xmlns="http://www.w3.org/2000/svg" xmlns:xlink="http://www.w3.org/1999/xlink" xml:space="preserve" xmlns:serif="http://www.serif.com/" style="fill-rule:evenodd;clip-rule:evenodd;stroke-linejoin:round;stroke-miterlimit:2;">
    <g>
        <g>
            <path d="M1945.47,1260.75C1901.9,1344.07 1883.14,1395.17 1831.11,1459.86C1721.79,1595.77 1550.29,1676.4 1328.81,1676.4C999.297,1676.4 731.774,1408.88 731.774,1079.36C731.774,749.85 999.297,482.327 1328.81,482.327C1416.18,482.327 1504.31,501.655 1583.66,538.223C1638.67,563.57 1707.75,561.42 1707.75,561.42C1713.04,561.263 1717.97,564.119 1720.46,568.791L1807.9,732.603C1810.21,736.924 1810.08,742.139 1807.56,746.34C1805.04,750.541 1800.5,753.111 1795.6,753.111L1602.78,753.111C1599.59,753.111 1596.51,752.021 1594.03,750.021C1521.47,691.496 1429.2,656.443 1328.81,656.443C1095.39,656.443 905.89,845.948 905.89,1079.36C905.89,1312.78 1095.39,1502.29 1328.81,1502.29C1516.91,1502.29 1679.65,1408.33 1749.68,1270.5C1749.85,1270.18 1796.21,1181.01 1814.63,1133.14C1850.57,1039.76 1955.8,745.537 1959.47,709.56C1960.85,696.011 1954.1,678.437 1946.24,662.021C1933.21,634.799 1915.9,610.88 1915.9,610.88C1912.83,606.637 1912.39,601.03 1914.78,596.364C1917.16,591.698 1921.95,588.762 1927.19,588.761L2261.28,588.741C2266.93,588.74 2272.01,592.14 2274.17,597.352C2276.33,602.565 2275.13,608.564 2271.14,612.55C2271.14,612.55 2251.52,632.154 2238.34,657.779C2230.42,673.191 2224.43,690.9 2228.65,707.52C2259.15,827.713 2443.66,1287.25 2457.72,1320.73C2464.53,1336.93 2478.86,1366.5 2499.71,1388.94C2512.2,1402.4 2527.02,1413.45 2544.34,1415.82C2567.92,1419.04 2586.34,1414.68 2600.17,1405.51C2621,1391.7 2631.25,1367.59 2634.05,1345.3C2648.03,1234.17 2634.32,781.048 2633.95,768.911C2627.46,670.839 2582.28,611.167 2582.28,611.167C2579.06,606.952 2578.51,601.277 2580.86,596.523C2583.21,591.77 2588.05,588.761 2593.36,588.761L3130.75,588.767C3229.29,582.464 3289.28,537.039 3289.28,537.039C3293.49,533.821 3299.16,533.271 3303.92,535.622C3308.67,537.973 3311.68,542.817 3311.68,548.12L3311.68,796.208C3311.68,801.511 3308.67,806.355 3303.92,808.705C3299.16,811.056 3293.49,810.507 3289.28,807.288C3289.28,807.288 3227.37,760.41 3126.02,755.291L2800.76,755.291L2800.76,955.826L3021.28,955.825C3121.99,950.428 3183.45,903.883 3183.45,903.883C3187.67,900.665 3193.34,900.115 3198.1,902.466C3202.85,904.817 3205.86,909.661 3205.86,914.964L3205.86,1163.05C3205.86,1168.36 3202.85,1173.2 3198.1,1175.55C3193.34,1177.9 3187.67,1177.35 3183.45,1174.13C3183.45,1174.13 3114.2,1121.68 3002.23,1121.68C2997.22,1121.68 2847.71,1121.44 2800.76,1121.36L2800.76,1405.27C2805.93,1506.5 2852.75,1568.32 2852.75,1568.32C2855.97,1572.54 2856.52,1578.22 2854.17,1582.97C2851.82,1587.72 2846.97,1590.73 2841.67,1590.73L2387.05,1590.63C2381.19,1590.63 2375.96,1586.97 2373.95,1581.48L2256.71,1260.75L1945.47,1260.75ZM2096.2,825.363L2008.63,1069.03L2186.53,1069.03L2096.2,825.363Z" style="fill:white;fill-opacity:0.37;"/>
            <path d="M668.619,1328.4C680.488,1359.82 694.537,1390.16 710.58,1419.26L676.928,1463.44C671.939,1469.99 663.842,1473.39 655.67,1472.38C647.499,1471.36 640.485,1466.07 637.256,1458.49L599.451,1369.8L526.379,1432.69C520.134,1438.06 511.5,1439.71 503.715,1437.01C495.93,1434.31 490.17,1427.67 488.594,1419.58L470.298,1325.69L385.755,1372.45C378.537,1376.44 369.739,1376.28 362.665,1372.04C355.591,1367.8 351.314,1360.11 351.439,1351.86L352.893,1255.91L260.265,1284.17C252.364,1286.58 243.778,1284.6 237.738,1278.96C231.699,1273.33 229.124,1264.9 230.983,1256.85L252.598,1163.26L156.403,1171.8C148.163,1172.53 140.16,1168.81 135.415,1162.03C130.67,1155.26 129.905,1146.46 133.409,1138.97L173.78,1052.63L77.771,1041.19C69.547,1040.21 62.475,1034.9 59.231,1027.28C55.986,1019.66 57.064,1010.89 62.056,1004.28L119.97,927.627L29.261,896.821C21.412,894.156 15.59,887.494 14,879.36C12.41,871.225 15.295,862.861 21.562,857.437L93.59,795.093L11.201,745.412C4.102,741.13 -0.163,733.376 0.023,725.088C0.209,716.799 4.818,709.244 12.103,705.286L96.228,659.578L25.893,594.191C19.823,588.548 17.237,580.088 19.114,572.016C20.991,563.943 27.044,557.492 34.98,555.106L126.636,527.546L70.6,449.611C65.766,442.888 64.895,434.093 68.318,426.552C71.74,419.012 78.934,413.876 87.177,413.089L182.657,403.966L144.935,316.188C141.669,308.59 142.71,299.826 147.664,293.204C152.618,286.581 160.731,283.109 168.943,284.096L264.28,295.557L246.214,202.398C244.642,194.291 247.513,185.96 253.745,180.542C259.977,175.124 268.626,173.44 276.436,176.125L367.452,207.411L368.335,111.646C368.412,103.399 372.874,95.816 380.047,91.746C387.221,87.675 396.019,87.733 403.138,91.898L486.325,140.558L507.382,47.247C509.195,39.21 515.148,32.745 523.008,30.275C530.868,27.805 539.448,29.703 545.533,35.258L616.553,100.091L657.032,13.33C660.514,5.868 667.701,0.82 675.901,0.076C684.102,-0.668 692.08,3.005 696.847,9.719L752.559,88.183L808.99,11.235C813.86,4.595 821.894,1.045 830.082,1.914C838.27,2.784 845.379,7.942 848.745,15.457L887.815,102.673L959.294,39.416C965.465,33.956 974.074,32.19 981.895,34.782C989.717,37.374 995.568,43.931 997.257,51.996L1016.91,145.868L1100.73,98.725C1107.92,94.681 1116.72,94.773 1123.82,98.965C1130.92,103.158 1135.26,110.817 1135.19,119.065L1134.44,214.197L1225.84,185.487C1233.72,183.011 1242.32,184.927 1248.41,190.512C1254.49,196.097 1257.14,204.504 1255.35,212.567L1234.64,305.762L1330.76,296.461C1338.99,295.665 1347.02,299.326 1351.82,306.063C1356.62,312.8 1357.46,321.587 1354.01,329.108L1333.5,373.902C1331.94,373.892 1330.38,373.886 1328.81,373.886C1293.67,373.886 1259.13,376.461 1225.37,381.431C1116.66,235.96 943.102,141.719 747.705,141.719C418.792,141.719 151.756,408.754 151.756,737.667C151.756,1039.77 377.033,1289.67 668.619,1328.4Z" style="fill:white;"/>
            <path d="M633.866,1201.38C636.721,1217.73 640.139,1233.88 644.101,1249.82C405.313,1201.7 225.262,990.545 225.262,737.667C225.262,449.323 459.361,215.224 747.705,215.224C906.505,215.224 1048.85,286.228 1144.7,398.192C1128.7,402.515 1112.91,407.387 1097.38,412.788C1010.18,318.991 885.745,260.276 747.705,260.276C484.225,260.276 270.313,474.188 270.313,737.667C270.313,961.921 425.274,1150.27 633.866,1201.38Z" style="fill:white;"/>
            <path d="M623.351,1074.33C623.339,1076.01 623.334,1077.69 623.334,1079.36C623.334,1093.82 623.769,1108.18 624.629,1122.43C461.826,1070.33 343.819,917.668 343.819,737.667C343.819,514.757 524.794,333.782 747.705,333.782C854.492,333.782 951.656,375.315 1023.91,443.096C1009.43,450.051 995.231,457.487 981.322,465.381C918.528,411.444 836.895,378.833 747.705,378.833C549.659,378.833 388.871,539.622 388.871,737.667C388.871,892.005 486.519,1023.72 623.351,1074.33Z" style="fill:white;"/>
            <path d="M635.192,949.989C632.329,965.412 629.968,981.011 628.127,996.768C530.307,951.503 462.377,852.456 462.377,737.667C462.377,580.19 590.228,452.339 747.705,452.339C810.642,452.339 868.846,472.76 916.049,507.332C903.278,516.567 890.829,526.219 878.72,536.268C841.028,511.683 796.022,497.391 747.705,497.391C615.093,497.391 507.428,605.055 507.428,737.667C507.428,829.639 559.214,909.61 635.192,949.989Z" style="fill:white;"/>
            <path d="M668.664,830.204C663.058,845.034 657.937,860.101 653.321,875.387C610.058,845.245 581.724,795.134 581.724,738.458C581.724,646.414 656.452,571.687 748.495,571.687C774.885,571.687 799.852,577.83 822.042,588.763C811.121,600.041 800.573,611.682 790.418,623.666C777.125,618.677 762.731,615.948 747.705,615.948C680.526,615.948 625.986,670.489 625.986,737.667C625.986,774.689 642.55,807.872 668.664,830.204Z" style="fill:white;"/>
            <path d="M1945.47,1260.75C1901.9,1344.07 1883.14,1395.17 1831.11,1459.86C1721.79,1595.77 1550.29,1676.4 1328.81,1676.4C999.297,1676.4 731.774,1408.88 731.774,1079.36C731.774,749.85 999.297,482.327 1328.81,482.327C1416.18,482.327 1504.31,501.655 1583.66,538.223C1638.67,563.57 1707.75,561.42 1707.75,561.42C1713.04,561.263 1717.97,564.119 1720.46,568.791L1807.9,732.603C1810.21,736.924 1810.08,742.139 1807.56,746.34C1805.04,750.541 1800.5,753.111 1795.6,753.111L1602.78,753.111C1599.59,753.111 1596.51,752.021 1594.03,750.021C1521.47,691.496 1429.2,656.443 1328.81,656.443C1095.39,656.443 905.89,845.948 905.89,1079.36C905.89,1312.78 1095.39,1502.29 1328.81,1502.29C1516.91,1502.29 1679.65,1408.33 1749.68,1270.5C1749.85,1270.18 1796.21,1181.01 1814.63,1133.14C1850.57,1039.76 1955.8,745.537 1959.47,709.56C1960.85,696.011 1954.1,678.437 1946.24,662.021C1933.21,634.799 1915.9,610.88 1915.9,610.88C1912.83,606.637 1912.39,601.03 1914.78,596.364C1917.16,591.698 1921.95,588.762 1927.19,588.761L2261.28,588.741C2266.93,588.74 2272.01,592.14 2274.17,597.352C2276.33,602.565 2275.13,608.564 2271.14,612.55C2271.14,612.55 2251.52,632.154 2238.34,657.779C2230.42,673.191 2224.43,690.9 2228.65,707.52C2259.15,827.713 2443.66,1287.25 2457.72,1320.73C2464.53,1336.93 2478.86,1366.5 2499.71,1388.94C2512.2,1402.4 2527.02,1413.45 2544.34,1415.82C2567.92,1419.04 2586.34,1414.68 2600.17,1405.51C2621,1391.7 2631.25,1367.59 2634.05,1345.3C2648.03,1234.17 2634.32,781.048 2633.95,768.911C2627.46,670.839 2582.28,611.167 2582.28,611.167C2579.06,606.952 2578.51,601.277 2580.86,596.523C2583.21,591.77 2588.05,588.761 2593.36,588.761L3130.75,588.767C3229.29,582.464 3289.28,537.039 3289.28,537.039C3293.49,533.821 3299.16,533.271 3303.92,535.622C3308.67,537.973 3311.68,542.817 3311.68,548.12L3311.68,796.208C3311.68,801.511 3308.67,806.355 3303.92,808.705C3299.16,811.056 3293.49,810.507 3289.28,807.288C3289.28,807.288 3227.37,760.41 3126.02,755.291L2800.76,755.291L2800.76,955.826L3021.28,955.825C3121.99,950.428 3183.45,903.883 3183.45,903.883C3187.67,900.665 3193.34,900.115 3198.1,902.466C3202.85,904.817 3205.86,909.661 3205.86,914.964L3205.86,1163.05C3205.86,1168.36 3202.85,1173.2 3198.1,1175.55C3193.34,1177.9 3187.67,1177.35 3183.45,1174.13C3183.45,1174.13 3114.2,1121.68 3002.23,1121.68C2997.22,1121.68 2847.71,1121.44 2800.76,1121.36L2800.76,1405.27C2805.93,1506.5 2852.75,1568.32 2852.75,1568.32C2855.97,1572.54 2856.52,1578.22 2854.17,1582.97C2851.82,1587.72 2846.97,1590.73 2841.67,1590.73L2387.05,1590.63C2381.19,1590.63 2375.96,1586.97 2373.95,1581.48L2256.71,1260.75L1945.47,1260.75ZM2096.2,825.363L2008.63,1069.03L2186.53,1069.03L2096.2,825.363Z" style="fill:white;"/>
            <path d="M5770.38,602.709L6302.15,602.712C6404.96,595.901 6467.42,548.205 6467.42,548.205L6467.42,796.293C6467.42,796.293 6401.75,746.143 6294.23,741.348L5956.5,741.348L5956.5,969.769L6189.57,969.769C6296.4,964.668 6361.59,914.877 6361.59,914.877L6361.59,1162.96C6361.59,1162.96 6289.17,1107.65 6171.9,1107.65C6166.78,1107.65 5956.5,1107.39 5956.5,1107.39L5956.5,1437.66L6303.52,1437.66C6405.52,1430.52 6467.42,1383.25 6467.42,1383.25L6467.42,1631.34C6467.42,1631.34 6404.07,1582.96 6299.95,1576.69L5762.45,1576.55C5762.45,1576.55 5813.99,1509.06 5817.57,1398.91L5817.57,780.34C5813.99,670.183 5762.45,602.699 5762.45,602.699L5770.38,602.709Z" style="fill:white;"/>
            <path d="M5770.39,588.767L6301.69,588.769C6399.48,582.163 6458.95,537.125 6458.95,537.125C6463.17,533.906 6468.84,533.357 6473.6,535.708C6478.35,538.059 6481.36,542.902 6481.36,548.205L6481.36,796.293C6481.36,801.596 6478.35,806.44 6473.6,808.791C6468.84,811.142 6463.17,810.593 6458.95,807.374C6458.95,807.374 6396.32,759.947 6293.92,755.291L5970.44,755.29L5970.44,955.826L6189.23,955.826C6290.96,950.873 6353.13,903.796 6353.13,903.796C6357.34,900.578 6363.02,900.028 6367.77,902.379C6372.53,904.73 6375.53,909.574 6375.53,914.877L6375.53,1162.96C6375.53,1168.27 6372.53,1173.11 6367.77,1175.46C6363.02,1177.81 6357.34,1177.26 6353.13,1174.05C6353.13,1174.05 6283.87,1121.6 6171.9,1121.6C6167.58,1121.6 6017.49,1121.41 5970.44,1121.35L5970.44,1423.72L6303.04,1423.72C6400.02,1416.79 6458.95,1372.17 6458.95,1372.17C6463.17,1368.95 6468.84,1368.4 6473.6,1370.75C6478.35,1373.1 6481.36,1377.94 6481.36,1383.25L6481.36,1631.34C6481.36,1636.64 6478.35,1641.48 6473.6,1643.83C6468.84,1646.18 6463.17,1645.63 6458.95,1642.41C6458.95,1642.41 6398.6,1596.71 6299.53,1590.63L5762.45,1590.49C5757.14,1590.49 5752.3,1587.48 5749.95,1582.73C5747.6,1577.97 5748.15,1572.3 5751.37,1568.09C5751.37,1568.09 5800.15,1503.67 5803.62,1398.68L5803.62,780.557C5800.14,675.571 5751.37,611.162 5751.37,611.162C5748.15,606.945 5747.6,601.265 5749.96,596.51C5752.31,591.756 5757.16,588.75 5762.47,588.757L5770.39,588.767Z" style="fill:white;"/>
            <path d="M7683.16,1160.47C7703.16,1151.6 7770.4,1126.97 7819.51,1126.97C8028.73,1126.97 8198.58,1296.83 8198.58,1506.05C8198.58,1715.26 8028.73,1885.12 7819.51,1885.12C7692.92,1885.12 7584.96,1816.16 7515.33,1727.59L7461.17,1660.78L7461.05,1660.63L7116.58,1223.63L6835.48,1585.15C6832.83,1588.55 6828.77,1590.53 6824.47,1590.53L6643.02,1590.53C6636.6,1590.53 6631.01,1586.15 6629.48,1579.91L6594.05,1435.27C6592.84,1430.33 6594.4,1425.14 6598.14,1421.69C6601.87,1418.26 6607.18,1417.12 6612,1418.72C6612,1418.72 6704.41,1447.94 6815.1,1340.27L7008.12,1088.14L6815.33,836.375C6704.54,728.442 6612,757.697 6612,757.697C6607.18,759.302 6601.87,758.163 6598.14,754.722C6594.4,751.282 6592.84,746.084 6594.05,741.152L6629.48,596.51C6631.01,590.272 6636.6,585.885 6643.02,585.885L6824.47,585.886C6828.77,585.886 6832.83,587.873 6835.48,591.27L7116.5,952.693L7397.44,591.272C7400.09,587.873 7404.15,585.886 7408.45,585.886L7590.03,585.885C7596.46,585.885 7602.05,590.272 7603.58,596.51L7639.01,741.152C7640.22,746.084 7638.65,751.282 7634.92,754.722C7631.18,758.163 7625.88,759.302 7621.06,757.697C7621.06,757.697 7528.35,728.39 7417.42,836.669L7224.73,1088.29C7271.12,1151.03 7563.92,1545.58 7660.48,1642.14C7705.43,1687.09 7755.94,1715.36 7819.51,1715.36C7935.03,1715.36 8028.82,1621.57 8028.82,1506.05C8028.82,1390.53 7935.03,1296.74 7819.51,1296.74C7750.93,1296.74 7690.01,1329.79 7651.82,1380.82C7649.24,1384.27 7645.21,1386.33 7640.9,1386.41C7636.6,1386.48 7632.5,1384.56 7629.8,1381.21L7509.56,1231.7C7506.36,1227.72 7505.59,1222.3 7507.56,1217.58C7509.54,1212.87 7513.93,1209.61 7519.02,1209.09C7519.02,1209.09 7590.07,1201.75 7683.16,1160.47Z" style="fill:white;"/>
            <path d="M3429.34,602.699L3969.04,602.712C4071.85,595.901 4134.3,548.205 4134.3,548.205L4134.3,796.293C4134.3,796.293 4068.64,746.143 3961.12,741.348L3623.39,741.348L3623.39,969.769L3856.45,969.769C3963.28,964.668 4028.48,914.877 4028.48,914.877L4028.48,1162.96C4028.48,1162.96 3956.06,1107.65 3838.79,1107.65C3833.66,1107.65 3623.39,1107.39 3623.39,1107.39L3623.39,1437.66L3970.41,1437.66C4072.41,1430.52 4134.3,1383.25 4134.3,1383.25L4134.3,1631.34C4134.3,1631.34 4070.96,1582.96 3966.84,1576.69L3433.68,1576.69C3434.04,1576.67 3434.52,1576.63 3435.11,1576.54L3429.34,1576.55C3429.34,1576.55 3480.88,1509.06 3484.45,1398.91L3484.45,780.34C3480.88,670.183 3429.34,602.699 3429.34,602.699Z" style="fill:white;"/>
            <path d="M3431.67,1590.49L3429.35,1590.49C3424.05,1590.5 3419.2,1587.49 3416.84,1582.73C3414.49,1577.98 3415.04,1572.3 3418.26,1568.09C3418.26,1568.09 3467.03,1503.67 3470.51,1398.68L3470.51,780.557C3467.03,675.571 3418.26,611.162 3418.26,611.162C3415.04,606.947 3414.49,601.272 3416.84,596.518C3419.19,591.765 3424.03,588.757 3429.34,588.757L3968.58,588.769C4066.36,582.163 4125.84,537.125 4125.84,537.125C4130.06,533.906 4135.73,533.357 4140.48,535.708C4145.24,538.059 4148.25,542.902 4148.25,548.205L4148.25,796.293C4148.25,801.596 4145.24,806.44 4140.48,808.791C4135.73,811.142 4130.06,810.593 4125.84,807.374C4125.84,807.374 4063.21,759.947 3960.81,755.291L3637.33,755.29L3637.33,955.826L3856.12,955.826C3957.85,950.873 4020.02,903.796 4020.02,903.796C4024.23,900.578 4029.91,900.028 4034.66,902.379C4039.41,904.73 4042.42,909.574 4042.42,914.877L4042.42,1162.96C4042.42,1168.27 4039.41,1173.11 4034.66,1175.46C4029.91,1177.81 4024.23,1177.26 4020.02,1174.05C4020.02,1174.05 3950.76,1121.6 3838.79,1121.6C3834.47,1121.6 3684.38,1121.41 3637.33,1121.35L3637.33,1423.72L3969.93,1423.72C4066.91,1416.79 4125.84,1372.17 4125.84,1372.17C4130.06,1368.95 4135.73,1368.4 4140.48,1370.75C4145.24,1373.1 4148.25,1377.94 4148.25,1383.25L4148.25,1631.34C4148.25,1636.64 4145.24,1641.48 4140.48,1643.83C4135.73,1646.18 4130.06,1645.63 4125.84,1642.41C4125.84,1642.41 4065.49,1596.71 3966.41,1590.63L3433.68,1590.63C3433,1590.63 3432.33,1590.58 3431.67,1590.49Z" style="fill:white;"/>
            <path d="M5456.28,1476.82L5456.28,796.315L5172.32,1376.95L5022.58,1376.95L5022.58,796.315L4599.09,1662.46L4382.62,1661.46L4348.39,1521.69C4348.39,1521.69 4431.56,1541.62 4482.34,1507.62C4531.28,1474.86 4549.49,1454.26 4569.09,1417.44C4656.6,1253.04 5007.37,521.235 5007.37,521.235L5157.11,521.235L5157.11,1101.87L5441.07,521.235L5590.81,521.235L5590.81,1476.82C5590.81,1591.58 5644.94,1662.46 5644.94,1662.46L5402.15,1662.46C5402.15,1662.46 5456.28,1591.58 5456.28,1476.82Z" style="fill:white;"/>
            <path d="M5442.34,1476.82L5442.34,856.561L5184.85,1383.08C5182.51,1387.86 5177.65,1390.89 5172.32,1390.89L5022.58,1390.89C5014.88,1390.89 5008.64,1384.65 5008.64,1376.95L5008.64,856.572L4611.61,1668.58C4609.26,1673.39 4604.37,1676.43 4599.02,1676.4L4382.56,1675.4C4376.16,1675.37 4370.6,1670.99 4369.08,1664.78L4334.85,1525.01C4333.69,1520.29 4335.08,1515.31 4338.51,1511.86C4341.94,1508.41 4346.92,1507 4351.64,1508.13C4351.64,1508.13 4379.79,1514.84 4412.61,1513.34C4433.47,1512.38 4456.39,1508.22 4474.58,1496.04C4520.87,1465.05 4538.24,1445.71 4556.78,1410.88C4644.23,1246.58 4994.8,515.209 4994.8,515.209C4997.12,510.371 5002.01,507.293 5007.37,507.293L5157.11,507.293C5164.81,507.293 5171.05,513.535 5171.05,521.235L5171.05,1041.63L5428.54,515.11C5430.88,510.326 5435.74,507.293 5441.07,507.293L5590.81,507.293C5598.51,507.293 5604.75,513.535 5604.75,521.235L5604.75,1476.82C5604.75,1586.29 5656.02,1654 5656.02,1654C5659.24,1658.21 5659.79,1663.89 5657.44,1668.64C5655.09,1673.39 5650.24,1676.4 5644.94,1676.4L5402.15,1676.4C5396.85,1676.4 5392,1673.39 5389.65,1668.64C5387.3,1663.89 5387.85,1658.21 5391.07,1654C5391.07,1654 5442.34,1586.29 5442.34,1476.82Z" style="fill:white;"/>
            <path d="M3652.95,527.62C3650.01,507.627 3831.83,378.737 3871.14,372.951C3910.45,367.166 3921.77,469.534 3888.8,492.907C3852.43,518.686 3655.89,547.613 3652.95,527.62Z" style="fill:white;"/>
        </g>
        <path d="M7688.82,1173.21C7707.99,1164.71 7772.42,1140.92 7819.51,1140.92C8021.03,1140.92 8184.64,1304.53 8184.64,1506.05C8184.64,1707.57 8021.03,1871.18 7819.51,1871.18C7697.38,1871.18 7593.38,1804.36 7526.22,1718.89L7472,1652L7116.51,1201.01L6824.47,1576.59L6643.02,1576.59L6607.59,1431.95C6607.59,1431.95 6707.25,1465.17 6825.56,1349.54L7025.68,1088.14L6825.79,827.103C6707.38,711.205 6607.59,744.47 6607.59,744.47L6643.02,599.828L6824.47,599.828L7116.51,975.409L7408.45,599.828L7590.03,599.827L7625.47,744.47C7625.47,744.47 7525.5,711.148 7406.96,827.4L7207.28,1088.14C7207.28,1088.14 7545.33,1546.7 7650.62,1652C7698.31,1699.68 7752.07,1729.3 7819.51,1729.3C7942.73,1729.3 8042.76,1629.26 8042.76,1506.05C8042.76,1382.83 7942.73,1282.79 7819.51,1282.79C7746.37,1282.79 7681.39,1318.04 7640.66,1372.47L7520.43,1222.96C7520.43,1222.96 7593.33,1215.56 7688.82,1173.21Z" style="fill:white;"/>
    </g>
</svg>
