<?xml version="1.0" encoding="UTF-8" standalone="no"?>
<!DOCTYPE svg PUBLIC "-//W3C//DTD SVG 1.1//EN" "http://www.w3.org/Graphics/SVG/1.1/DTD/svg11.dtd">
<svg width="100%" height="100%" viewBox="0 0 8199 1886" version="1.1" xmlns="http://www.w3.org/2000/svg" xmlns:xlink="http://www.w3.org/1999/xlink" xml:space="preserve" xmlns:serif="http://www.serif.com/" style="fill-rule:evenodd;clip-rule:evenodd;stroke-linejoin:round;stroke-miterlimit:2;">
    <g>
        <g>
            <path d="M1945.47,1260.8C1901.9,1344.12 1883.14,1395.22 1831.11,1459.91C1721.79,1595.82 1550.29,1676.45 1328.81,1676.45C999.297,1676.45 731.774,1408.93 731.774,1079.41C731.774,749.9 999.297,482.377 1328.81,482.377C1416.18,482.377 1504.31,501.705 1583.66,538.273C1638.67,563.62 1707.75,561.47 1707.75,561.47C1713.04,561.313 1717.97,564.169 1720.46,568.841L1807.9,732.653C1810.21,736.974 1810.08,742.189 1807.56,746.39C1805.04,750.591 1800.5,753.161 1795.6,753.161L1602.78,753.161C1599.59,753.161 1596.51,752.071 1594.03,750.071C1521.47,691.546 1429.2,656.493 1328.81,656.493C1095.39,656.493 905.89,845.998 905.89,1079.41C905.89,1312.83 1095.39,1502.34 1328.81,1502.34C1516.91,1502.34 1679.65,1408.38 1749.68,1270.55C1749.85,1270.23 1796.21,1181.06 1814.63,1133.19C1850.57,1039.81 1955.8,745.587 1959.47,709.61C1960.85,696.061 1954.1,678.487 1946.24,662.071C1933.21,634.849 1915.9,610.93 1915.9,610.93C1912.83,606.687 1912.39,601.08 1914.78,596.414C1917.16,591.748 1921.95,588.812 1927.19,588.811L2261.28,588.791C2266.93,588.79 2272.01,592.19 2274.17,597.402C2276.33,602.615 2275.13,608.614 2271.14,612.6C2271.14,612.6 2251.52,632.204 2238.34,657.829C2230.42,673.241 2224.43,690.95 2228.65,707.57C2259.15,827.763 2443.66,1287.3 2457.72,1320.78C2464.53,1336.98 2478.86,1366.55 2499.71,1389C2512.2,1402.45 2527.02,1413.5 2544.34,1415.87C2567.92,1419.09 2586.34,1414.73 2600.17,1405.56C2621,1391.75 2631.25,1367.64 2634.05,1345.35C2648.03,1234.22 2634.32,781.098 2633.95,768.961C2627.46,670.889 2582.28,611.217 2582.28,611.217C2579.06,607.002 2578.51,601.327 2580.86,596.573C2583.21,591.82 2588.05,588.811 2593.36,588.811L3130.75,588.817C3229.29,582.514 3289.28,537.089 3289.28,537.089C3293.49,533.871 3299.16,533.321 3303.92,535.672C3308.67,538.023 3311.68,542.867 3311.68,548.17L3311.68,796.258C3311.68,801.561 3308.67,806.405 3303.92,808.755C3299.16,811.106 3293.49,810.557 3289.28,807.338C3289.28,807.338 3227.37,760.46 3126.02,755.341L2800.76,755.341L2800.76,955.876L3021.28,955.875C3121.99,950.478 3183.45,903.933 3183.45,903.933C3187.67,900.715 3193.34,900.165 3198.1,902.516C3202.85,904.867 3205.86,909.711 3205.86,915.014L3205.86,1163.1C3205.86,1168.4 3202.85,1173.25 3198.1,1175.6C3193.34,1177.95 3187.67,1177.4 3183.45,1174.18C3183.45,1174.18 3114.2,1121.73 3002.23,1121.73C2997.22,1121.73 2847.71,1121.49 2800.76,1121.41L2800.76,1405.32C2805.93,1506.55 2852.75,1568.37 2852.75,1568.37C2855.97,1572.59 2856.52,1578.27 2854.17,1583.02C2851.82,1587.77 2846.97,1590.78 2841.67,1590.78L2387.05,1590.68C2381.19,1590.68 2375.96,1587.02 2373.95,1581.53L2256.71,1260.8L1945.47,1260.8ZM2096.2,825.413L2008.63,1069.08L2186.53,1069.08L2096.2,825.413Z" style="fill-opacity:0.37;"/>
            <path d="M668.619,1328.45C680.488,1359.87 694.537,1390.21 710.58,1419.31L676.928,1463.49C671.939,1470.04 663.842,1473.44 655.67,1472.42C647.499,1471.41 640.485,1466.12 637.256,1458.54L599.451,1369.85L526.379,1432.74C520.134,1438.11 511.5,1439.76 503.715,1437.06C495.93,1434.36 490.17,1427.72 488.594,1419.63L470.298,1325.74L385.755,1372.5C378.537,1376.49 369.739,1376.33 362.665,1372.09C355.591,1367.85 351.314,1360.16 351.439,1351.91L352.893,1255.96L260.265,1284.22C252.364,1286.63 243.778,1284.65 237.738,1279.01C231.699,1273.38 229.124,1264.95 230.983,1256.9L252.598,1163.31L156.403,1171.85C148.163,1172.58 140.16,1168.86 135.415,1162.08C130.67,1155.31 129.905,1146.51 133.409,1139.02L173.78,1052.68L77.771,1041.24C69.547,1040.26 62.475,1034.95 59.231,1027.33C55.986,1019.71 57.064,1010.94 62.056,1004.33L119.97,927.677L29.261,896.871C21.412,894.206 15.59,887.544 14,879.41C12.41,871.275 15.295,862.911 21.562,857.487L93.59,795.143L11.201,745.462C4.102,741.18 -0.163,733.426 0.023,725.138C0.209,716.849 4.818,709.294 12.103,705.336L96.228,659.628L25.893,594.241C19.823,588.598 17.237,580.138 19.114,572.066C20.991,563.993 27.044,557.542 34.98,555.156L126.636,527.596L70.6,449.661C65.766,442.938 64.895,434.143 68.318,426.602C71.74,419.062 78.934,413.926 87.177,413.139L182.657,404.016L144.935,316.238C141.669,308.64 142.71,299.876 147.664,293.254C152.618,286.631 160.731,283.159 168.943,284.146L264.28,295.607L246.214,202.448C244.642,194.341 247.513,186.01 253.745,180.592C259.977,175.174 268.626,173.49 276.436,176.175L367.452,207.461L368.335,111.696C368.412,103.449 372.874,95.866 380.047,91.796C387.221,87.725 396.019,87.783 403.138,91.948L486.325,140.608L507.382,47.297C509.195,39.26 515.148,32.795 523.008,30.325C530.868,27.855 539.448,29.753 545.533,35.308L616.553,100.141L657.032,13.38C660.514,5.918 667.701,0.87 675.901,0.126C684.102,-0.618 692.08,3.055 696.847,9.769L752.559,88.233L808.99,11.285C813.86,4.645 821.894,1.095 830.082,1.964C838.27,2.834 845.379,7.992 848.745,15.507L887.815,102.723L959.294,39.466C965.465,34.006 974.074,32.24 981.895,34.832C989.717,37.424 995.568,43.981 997.257,52.046L1016.91,145.918L1100.73,98.775C1107.92,94.731 1116.72,94.823 1123.82,99.015C1130.92,103.208 1135.26,110.867 1135.19,119.115L1134.44,214.247L1225.84,185.537C1233.72,183.061 1242.32,184.977 1248.41,190.562C1254.49,196.147 1257.14,204.554 1255.35,212.617L1234.64,305.812L1330.76,296.511C1338.99,295.715 1347.02,299.376 1351.82,306.113C1356.62,312.85 1357.46,321.637 1354.01,329.158L1333.5,373.952C1331.94,373.942 1330.38,373.936 1328.81,373.936C1293.67,373.936 1259.13,376.511 1225.37,381.481C1116.66,236.01 943.102,141.769 747.705,141.769C418.792,141.769 151.756,408.804 151.756,737.717C151.756,1039.82 377.033,1289.72 668.619,1328.45Z"/>
            <path d="M633.866,1201.43C636.721,1217.78 640.139,1233.93 644.101,1249.87C405.313,1201.75 225.262,990.595 225.262,737.717C225.262,449.373 459.361,215.274 747.705,215.274C906.505,215.274 1048.85,286.278 1144.7,398.242C1128.7,402.565 1112.91,407.437 1097.38,412.838C1010.18,319.041 885.745,260.326 747.705,260.326C484.225,260.326 270.313,474.238 270.313,737.717C270.313,961.971 425.274,1150.32 633.866,1201.43Z"/>
            <path d="M623.351,1074.38C623.339,1076.06 623.334,1077.74 623.334,1079.41C623.334,1093.87 623.769,1108.23 624.629,1122.48C461.826,1070.38 343.819,917.718 343.819,737.717C343.819,514.807 524.794,333.832 747.705,333.832C854.492,333.832 951.656,375.365 1023.91,443.146C1009.43,450.101 995.231,457.537 981.322,465.431C918.528,411.494 836.895,378.883 747.705,378.883C549.659,378.883 388.871,539.672 388.871,737.717C388.871,892.055 486.519,1023.76 623.351,1074.38Z"/>
            <path d="M635.192,950.039C632.329,965.462 629.968,981.061 628.127,996.818C530.307,951.553 462.377,852.506 462.377,737.717C462.377,580.24 590.228,452.389 747.705,452.389C810.642,452.389 868.846,472.81 916.049,507.382C903.278,516.617 890.829,526.269 878.72,536.318C841.028,511.733 796.022,497.441 747.705,497.441C615.093,497.441 507.428,605.105 507.428,737.717C507.428,829.689 559.214,909.66 635.192,950.039Z"/>
            <path d="M668.664,830.254C663.058,845.084 657.937,860.151 653.321,875.437C610.058,845.295 581.724,795.184 581.724,738.508C581.724,646.464 656.452,571.737 748.495,571.737C774.885,571.737 799.852,577.88 822.042,588.813C811.121,600.091 800.573,611.732 790.418,623.716C777.125,618.727 762.731,615.998 747.705,615.998C680.526,615.998 625.986,670.539 625.986,737.717C625.986,774.739 642.55,807.922 668.664,830.254Z"/>
            <path d="M1945.47,1260.8C1901.9,1344.12 1883.14,1395.22 1831.11,1459.91C1721.79,1595.82 1550.29,1676.45 1328.81,1676.45C999.297,1676.45 731.774,1408.93 731.774,1079.41C731.774,749.9 999.297,482.377 1328.81,482.377C1416.18,482.377 1504.31,501.705 1583.66,538.273C1638.67,563.62 1707.75,561.47 1707.75,561.47C1713.04,561.313 1717.97,564.169 1720.46,568.841L1807.9,732.653C1810.21,736.974 1810.08,742.189 1807.56,746.39C1805.04,750.591 1800.5,753.161 1795.6,753.161L1602.78,753.161C1599.59,753.161 1596.51,752.071 1594.03,750.071C1521.47,691.546 1429.2,656.493 1328.81,656.493C1095.39,656.493 905.89,845.998 905.89,1079.41C905.89,1312.83 1095.39,1502.34 1328.81,1502.34C1516.91,1502.34 1679.65,1408.38 1749.68,1270.55C1749.85,1270.23 1796.21,1181.06 1814.63,1133.19C1850.57,1039.81 1955.8,745.587 1959.47,709.61C1960.85,696.061 1954.1,678.487 1946.24,662.071C1933.21,634.849 1915.9,610.93 1915.9,610.93C1912.83,606.687 1912.39,601.08 1914.78,596.414C1917.16,591.748 1921.95,588.812 1927.19,588.811L2261.28,588.791C2266.93,588.79 2272.01,592.19 2274.17,597.402C2276.33,602.615 2275.13,608.614 2271.14,612.6C2271.14,612.6 2251.52,632.204 2238.34,657.829C2230.42,673.241 2224.43,690.95 2228.65,707.57C2259.15,827.763 2443.66,1287.3 2457.72,1320.78C2464.53,1336.98 2478.86,1366.55 2499.71,1389C2512.2,1402.45 2527.02,1413.5 2544.34,1415.87C2567.92,1419.09 2586.34,1414.73 2600.17,1405.56C2621,1391.75 2631.25,1367.64 2634.05,1345.35C2648.03,1234.22 2634.32,781.098 2633.95,768.961C2627.46,670.889 2582.28,611.217 2582.28,611.217C2579.06,607.002 2578.51,601.327 2580.86,596.573C2583.21,591.82 2588.05,588.811 2593.36,588.811L3130.75,588.817C3229.29,582.514 3289.28,537.089 3289.28,537.089C3293.49,533.871 3299.16,533.321 3303.92,535.672C3308.67,538.023 3311.68,542.867 3311.68,548.17L3311.68,796.258C3311.68,801.561 3308.67,806.405 3303.92,808.755C3299.16,811.106 3293.49,810.557 3289.28,807.338C3289.28,807.338 3227.37,760.46 3126.02,755.341L2800.76,755.341L2800.76,955.876L3021.28,955.875C3121.99,950.478 3183.45,903.933 3183.45,903.933C3187.67,900.715 3193.34,900.165 3198.1,902.516C3202.85,904.867 3205.86,909.711 3205.86,915.014L3205.86,1163.1C3205.86,1168.4 3202.85,1173.25 3198.1,1175.6C3193.34,1177.95 3187.67,1177.4 3183.45,1174.18C3183.45,1174.18 3114.2,1121.73 3002.23,1121.73C2997.22,1121.73 2847.71,1121.49 2800.76,1121.41L2800.76,1405.32C2805.93,1506.55 2852.75,1568.37 2852.75,1568.37C2855.97,1572.59 2856.52,1578.27 2854.17,1583.02C2851.82,1587.77 2846.97,1590.78 2841.67,1590.78L2387.05,1590.68C2381.19,1590.68 2375.96,1587.02 2373.95,1581.53L2256.71,1260.8L1945.47,1260.8ZM2096.2,825.413L2008.63,1069.08L2186.53,1069.08L2096.2,825.413Z"/>
            <path d="M5770.38,602.759L6302.15,602.762C6404.96,595.951 6467.42,548.255 6467.42,548.255L6467.42,796.343C6467.42,796.343 6401.75,746.193 6294.23,741.398L5956.5,741.398L5956.5,969.819L6189.57,969.819C6296.4,964.718 6361.59,914.927 6361.59,914.927L6361.59,1163.02C6361.59,1163.02 6289.17,1107.7 6171.9,1107.7C6166.78,1107.7 5956.5,1107.44 5956.5,1107.44L5956.5,1437.71L6303.52,1437.71C6405.52,1430.57 6467.42,1383.3 6467.42,1383.3L6467.42,1631.38C6467.42,1631.38 6404.07,1583.01 6299.95,1576.74L5762.45,1576.6C5762.45,1576.6 5813.99,1509.11 5817.57,1398.96L5817.57,780.39C5813.99,670.233 5762.45,602.749 5762.45,602.749L5770.38,602.759Z"/>
            <path d="M5770.39,588.817L6301.69,588.819C6399.48,582.213 6458.95,537.175 6458.95,537.175C6463.17,533.956 6468.84,533.407 6473.6,535.758C6478.35,538.109 6481.36,542.952 6481.36,548.255L6481.36,796.343C6481.36,801.646 6478.35,806.49 6473.6,808.841C6468.84,811.192 6463.17,810.643 6458.95,807.424C6458.95,807.424 6396.32,759.997 6293.92,755.341L5970.44,755.34L5970.44,955.876L6189.23,955.876C6290.96,950.923 6353.13,903.846 6353.13,903.846C6357.34,900.628 6363.02,900.078 6367.77,902.429C6372.53,904.78 6375.53,909.624 6375.53,914.927L6375.53,1163.02C6375.53,1168.32 6372.53,1173.16 6367.77,1175.51C6363.02,1177.86 6357.34,1177.31 6353.13,1174.1C6353.13,1174.1 6283.87,1121.64 6171.9,1121.64C6167.58,1121.64 6017.49,1121.46 5970.44,1121.4L5970.44,1423.77L6303.04,1423.77C6400.02,1416.84 6458.95,1372.22 6458.95,1372.22C6463.17,1369 6468.84,1368.45 6473.6,1370.8C6478.35,1373.15 6481.36,1377.99 6481.36,1383.3L6481.36,1631.38C6481.36,1636.69 6478.35,1641.53 6473.6,1643.88C6468.84,1646.23 6463.17,1645.68 6458.95,1642.47C6458.95,1642.47 6398.6,1596.76 6299.53,1590.68L5762.45,1590.54C5757.14,1590.54 5752.3,1587.53 5749.95,1582.78C5747.6,1578.02 5748.15,1572.35 5751.37,1568.13C5751.37,1568.13 5800.15,1503.72 5803.62,1398.73L5803.62,780.607C5800.14,675.621 5751.37,611.212 5751.37,611.212C5748.15,606.995 5747.6,601.315 5749.96,596.56C5752.31,591.806 5757.16,588.8 5762.47,588.807L5770.39,588.817Z"/>
            <path d="M7683.16,1160.52C7703.16,1151.65 7770.4,1127.02 7819.51,1127.02C8028.73,1127.02 8198.58,1296.88 8198.58,1506.1C8198.58,1715.31 8028.73,1885.17 7819.51,1885.17C7692.92,1885.17 7584.96,1816.22 7515.33,1727.64L7461.17,1660.83L7461.05,1660.68L7116.58,1223.68L6835.48,1585.2C6832.83,1588.6 6828.77,1590.58 6824.47,1590.58L6643.02,1590.58C6636.6,1590.58 6631.01,1586.2 6629.48,1579.96L6594.05,1435.32C6592.84,1430.38 6594.4,1425.19 6598.14,1421.75C6601.87,1418.31 6607.18,1417.16 6612,1418.77C6612,1418.77 6704.41,1447.99 6815.1,1340.32L7008.12,1088.19L6815.33,836.425C6704.54,728.492 6612,757.747 6612,757.747C6607.18,759.352 6601.87,758.213 6598.14,754.772C6594.4,751.332 6592.84,746.134 6594.05,741.202L6629.48,596.56C6631.01,590.322 6636.6,585.935 6643.02,585.935L6824.47,585.936C6828.77,585.936 6832.83,587.923 6835.48,591.32L7116.5,952.743L7397.44,591.322C7400.09,587.923 7404.15,585.936 7408.45,585.936L7590.03,585.935C7596.46,585.935 7602.05,590.322 7603.58,596.56L7639.01,741.202C7640.22,746.134 7638.65,751.332 7634.92,754.772C7631.18,758.213 7625.88,759.352 7621.06,757.747C7621.06,757.747 7528.35,728.44 7417.42,836.719L7224.73,1088.34C7271.12,1151.08 7563.92,1545.63 7660.48,1642.19C7705.43,1687.14 7755.94,1715.41 7819.51,1715.41C7935.03,1715.41 8028.82,1621.62 8028.82,1506.1C8028.82,1390.58 7935.03,1296.79 7819.51,1296.79C7750.93,1296.79 7690.01,1329.84 7651.82,1380.87C7649.24,1384.32 7645.21,1386.38 7640.9,1386.46C7636.6,1386.53 7632.5,1384.61 7629.8,1381.26L7509.56,1231.75C7506.36,1227.77 7505.59,1222.35 7507.56,1217.63C7509.54,1212.92 7513.93,1209.66 7519.02,1209.14C7519.02,1209.14 7590.07,1201.8 7683.16,1160.52Z"/>
            <path d="M3429.34,602.749L3969.04,602.762C4071.85,595.951 4134.3,548.255 4134.3,548.255L4134.3,796.343C4134.3,796.343 4068.64,746.193 3961.12,741.398L3623.39,741.398L3623.39,969.819L3856.45,969.819C3963.28,964.718 4028.48,914.927 4028.48,914.927L4028.48,1163.02C4028.48,1163.02 3956.06,1107.7 3838.79,1107.7C3833.66,1107.7 3623.39,1107.44 3623.39,1107.44L3623.39,1437.71L3970.41,1437.71C4072.41,1430.57 4134.3,1383.3 4134.3,1383.3L4134.3,1631.38C4134.3,1631.38 4070.96,1583.01 3966.84,1576.74L3433.68,1576.74C3434.04,1576.72 3434.52,1576.68 3435.11,1576.59L3429.34,1576.6C3429.34,1576.6 3480.88,1509.11 3484.45,1398.96L3484.45,780.39C3480.88,670.233 3429.34,602.749 3429.34,602.749Z"/>
            <path d="M3431.67,1590.54L3429.35,1590.54C3424.05,1590.55 3419.2,1587.54 3416.84,1582.78C3414.49,1578.03 3415.04,1572.35 3418.26,1568.13C3418.26,1568.13 3467.03,1503.72 3470.51,1398.73L3470.51,780.607C3467.03,675.621 3418.26,611.212 3418.26,611.212C3415.04,606.997 3414.49,601.322 3416.84,596.568C3419.19,591.815 3424.03,588.807 3429.34,588.807L3968.58,588.819C4066.36,582.213 4125.84,537.175 4125.84,537.175C4130.06,533.956 4135.73,533.407 4140.48,535.758C4145.24,538.109 4148.25,542.952 4148.25,548.255L4148.25,796.343C4148.25,801.646 4145.24,806.49 4140.48,808.841C4135.73,811.192 4130.06,810.643 4125.84,807.424C4125.84,807.424 4063.21,759.997 3960.81,755.341L3637.33,755.34L3637.33,955.876L3856.12,955.876C3957.85,950.923 4020.02,903.846 4020.02,903.846C4024.23,900.628 4029.91,900.078 4034.66,902.429C4039.41,904.78 4042.42,909.624 4042.42,914.927L4042.42,1163.02C4042.42,1168.32 4039.41,1173.16 4034.66,1175.51C4029.91,1177.86 4024.23,1177.31 4020.02,1174.1C4020.02,1174.1 3950.76,1121.64 3838.79,1121.64C3834.47,1121.64 3684.38,1121.46 3637.33,1121.4L3637.33,1423.77L3969.93,1423.77C4066.91,1416.84 4125.84,1372.22 4125.84,1372.22C4130.06,1369 4135.73,1368.45 4140.48,1370.8C4145.24,1373.15 4148.25,1377.99 4148.25,1383.3L4148.25,1631.38C4148.25,1636.69 4145.24,1641.53 4140.48,1643.88C4135.73,1646.23 4130.06,1645.68 4125.84,1642.47C4125.84,1642.47 4065.49,1596.76 3966.41,1590.68L3433.68,1590.68C3433,1590.68 3432.33,1590.63 3431.67,1590.54Z"/>
            <path d="M5456.28,1476.87L5456.28,796.365L5172.32,1377L5022.58,1377L5022.58,796.365L4599.09,1662.51L4382.62,1661.51L4348.39,1521.74C4348.39,1521.74 4431.56,1541.67 4482.34,1507.67C4531.28,1474.91 4549.49,1454.31 4569.09,1417.49C4656.6,1253.09 5007.37,521.285 5007.37,521.285L5157.11,521.285L5157.11,1101.92L5441.07,521.285L5590.81,521.285L5590.81,1476.87C5590.81,1591.63 5644.94,1662.51 5644.94,1662.51L5402.15,1662.51C5402.15,1662.51 5456.28,1591.63 5456.28,1476.87Z"/>
            <path d="M5442.34,1476.87L5442.34,856.611L5184.85,1383.13C5182.51,1387.91 5177.65,1390.94 5172.32,1390.94L5022.58,1390.94C5014.88,1390.94 5008.64,1384.7 5008.64,1377L5008.64,856.622L4611.61,1668.63C4609.26,1673.44 4604.37,1676.48 4599.02,1676.45L4382.56,1675.45C4376.16,1675.42 4370.6,1671.04 4369.08,1664.83L4334.85,1525.06C4333.69,1520.34 4335.08,1515.36 4338.51,1511.91C4341.94,1508.46 4346.92,1507.05 4351.64,1508.18C4351.64,1508.18 4379.79,1514.89 4412.61,1513.39C4433.47,1512.43 4456.39,1508.27 4474.58,1496.09C4520.87,1465.1 4538.24,1445.76 4556.78,1410.93C4644.23,1246.63 4994.8,515.259 4994.8,515.259C4997.12,510.421 5002.01,507.343 5007.37,507.343L5157.11,507.343C5164.81,507.343 5171.05,513.585 5171.05,521.285L5171.05,1041.68L5428.54,515.16C5430.88,510.376 5435.74,507.343 5441.07,507.343L5590.81,507.343C5598.51,507.343 5604.75,513.585 5604.75,521.285L5604.75,1476.87C5604.75,1586.34 5656.02,1654.05 5656.02,1654.05C5659.24,1658.26 5659.79,1663.94 5657.44,1668.69C5655.09,1673.44 5650.24,1676.45 5644.94,1676.45L5402.15,1676.45C5396.85,1676.45 5392,1673.44 5389.65,1668.69C5387.3,1663.94 5387.85,1658.26 5391.07,1654.05C5391.07,1654.05 5442.34,1586.34 5442.34,1476.87Z"/>
            <path d="M3652.95,527.67C3650.01,507.677 3831.83,378.787 3871.14,373.001C3910.45,367.216 3921.77,469.584 3888.8,492.957C3852.43,518.736 3655.89,547.663 3652.95,527.67Z"/>
        </g>
        <path d="M7688.82,1173.26C7707.99,1164.76 7772.42,1140.97 7819.51,1140.97C8021.03,1140.97 8184.64,1304.58 8184.64,1506.1C8184.64,1707.62 8021.03,1871.23 7819.51,1871.23C7697.38,1871.23 7593.38,1804.41 7526.22,1718.94L7472,1652.05L7116.51,1201.06L6824.47,1576.64L6643.02,1576.64L6607.59,1432C6607.59,1432 6707.25,1465.22 6825.56,1349.59L7025.68,1088.19L6825.79,827.153C6707.38,711.255 6607.59,744.52 6607.59,744.52L6643.02,599.878L6824.47,599.878L7116.51,975.459L7408.45,599.878L7590.03,599.877L7625.47,744.52C7625.47,744.52 7525.5,711.198 7406.96,827.45L7207.28,1088.19C7207.28,1088.19 7545.33,1546.75 7650.62,1652.05C7698.31,1699.73 7752.07,1729.35 7819.51,1729.35C7942.73,1729.35 8042.76,1629.31 8042.76,1506.1C8042.76,1382.88 7942.73,1282.84 7819.51,1282.84C7746.37,1282.84 7681.39,1318.09 7640.66,1372.52L7520.43,1223.01C7520.43,1223.01 7593.33,1215.61 7688.82,1173.26Z"/>
    </g>
</svg>
