<?xml version="1.0" encoding="UTF-8" standalone="no"?>
<!DOCTYPE svg PUBLIC "-//W3C//DTD SVG 1.1//EN" "http://www.w3.org/Graphics/SVG/1.1/DTD/svg11.dtd">
<svg width="100%" height="100%" viewBox="0 0 8199 1886" version="1.1" xmlns="http://www.w3.org/2000/svg" xmlns:xlink="http://www.w3.org/1999/xlink" xml:space="preserve" xmlns:serif="http://www.serif.com/" style="fill-rule:evenodd;clip-rule:evenodd;stroke-linejoin:round;stroke-miterlimit:2;">
    <g>
        <path d="M710.568,1419.29L676.917,1463.47C671.927,1470.02 663.83,1473.42 655.659,1472.4C647.487,1471.38 640.474,1466.1 637.245,1458.52L599.439,1369.83L526.367,1432.72C520.122,1438.09 511.488,1439.74 503.703,1437.04C495.918,1434.34 490.158,1427.7 488.582,1419.61L470.286,1325.72L385.744,1372.47C378.525,1376.46 369.727,1376.31 362.653,1372.07C355.58,1367.82 351.302,1360.13 351.427,1351.88L352.882,1255.94L260.253,1284.2C252.352,1286.61 243.766,1284.62 237.727,1278.99C231.687,1273.35 229.112,1264.92 230.971,1256.87L252.586,1163.29L156.391,1171.83C148.152,1172.56 140.149,1168.83 135.403,1162.06C130.658,1155.28 129.893,1146.49 133.397,1139L173.768,1052.66L77.759,1041.21C69.535,1040.23 62.463,1034.93 59.219,1027.31C55.974,1019.69 57.052,1010.92 62.044,1004.31L119.958,927.654L29.249,896.848C21.401,894.182 15.579,887.521 13.989,879.386C12.399,871.251 15.284,862.888 21.551,857.463L93.579,795.119L11.19,745.438C4.09,741.157 -0.175,733.403 0.011,725.114C0.197,716.826 4.806,709.271 12.091,705.313L96.217,659.604L25.882,594.217C19.812,588.574 17.225,580.115 19.102,572.042C20.979,563.97 27.032,557.519 34.969,555.132L126.624,527.573L70.588,449.638C65.754,442.914 64.884,434.119 68.306,426.579C71.729,419.038 78.922,413.903 87.165,413.115L182.645,403.992L144.923,316.215C141.657,308.616 142.698,299.853 147.652,293.23C152.606,286.608 160.72,283.135 168.931,284.122L264.268,295.584L246.203,202.425C244.63,194.317 247.501,185.987 253.733,180.569C259.966,175.15 268.614,173.467 276.424,176.151L367.44,207.437L368.324,111.673C368.4,103.425 372.862,95.843 380.036,91.772C387.209,87.702 396.007,87.76 403.126,91.924L486.313,140.585L507.37,47.274C509.183,39.237 515.136,32.772 522.996,30.302C530.856,27.831 539.436,29.73 545.521,35.284L616.541,100.117L657.021,13.356C660.502,5.894 667.689,0.846 675.889,0.102C684.09,-0.641 692.068,3.032 696.835,9.746L752.547,88.209L808.979,11.261C813.849,4.621 821.882,1.071 830.07,1.941C838.259,2.811 845.367,7.969 848.733,15.484L887.803,102.699L959.283,39.443C965.453,33.982 974.062,32.217 981.884,34.809C989.705,37.401 995.557,43.958 997.245,52.023L1016.9,145.894L1100.72,98.751C1107.9,94.708 1116.7,94.799 1123.81,98.992C1130.91,103.184 1135.24,110.843 1135.18,119.091L1134.43,214.224L1225.83,185.513C1233.71,183.038 1242.31,184.953 1248.4,190.538C1254.48,196.123 1257.13,204.53 1255.34,212.593L1234.63,305.789L1330.75,296.488C1338.98,295.691 1347.01,299.352 1351.81,306.09C1356.61,312.827 1357.44,321.614 1354,329.135L1333.49,373.929C1331.93,373.918 1330.36,373.913 1328.8,373.913C939.436,373.913 623.322,690.027 623.322,1079.39C623.322,1202.59 654.968,1318.45 710.568,1419.29Z" style="fill:rgb(255,70,0);"/>
        <path d="M668.607,1328.43C377.021,1289.7 151.744,1039.8 151.744,737.694C151.744,408.781 418.78,141.745 747.693,141.745C943.09,141.745 1116.65,235.987 1225.36,381.457C884.958,431.562 623.322,725.163 623.322,1079.39C623.322,1167.04 639.34,1250.98 668.607,1328.43Z" style="fill:rgb(242,181,31);"/>
        <path d="M644.089,1249.85C405.301,1201.73 225.25,990.571 225.25,737.694C225.25,449.35 459.349,215.251 747.693,215.251C906.494,215.251 1048.84,286.254 1144.69,398.219C844.488,479.277 623.322,753.71 623.322,1079.39C623.322,1138.16 630.523,1195.25 644.089,1249.85Z" style="fill:rgb(255,70,0);"/>
        <path d="M633.854,1201.4C425.262,1150.29 270.302,961.948 270.302,737.694C270.302,474.214 484.214,260.303 747.693,260.303C885.733,260.303 1010.17,319.018 1097.36,412.814C821.529,508.691 623.322,771.077 623.322,1079.39C623.322,1121 626.931,1161.77 633.854,1201.4Z" style="fill:rgb(242,181,31);"/>
        <path d="M624.617,1122.45C461.814,1070.35 343.807,917.695 343.807,737.694C343.807,514.783 524.783,333.808 747.693,333.808C854.481,333.808 951.644,375.342 1023.9,443.122C787.012,556.95 623.322,799.205 623.322,1079.39C623.322,1093.85 623.758,1108.21 624.617,1122.45Z" style="fill:rgb(255,70,0);"/>
        <path d="M623.339,1074.36C486.507,1023.74 388.859,892.031 388.859,737.694C388.859,539.648 549.647,378.86 747.693,378.86C836.883,378.86 918.517,411.47 981.311,465.408C768.981,585.926 625.166,813.402 623.339,1074.36Z" style="fill:rgb(242,181,31);"/>
        <path d="M628.115,996.794C530.296,951.53 462.365,852.482 462.365,737.694C462.365,580.217 590.216,452.366 747.693,452.366C810.63,452.366 868.835,472.787 916.037,507.359C759.809,620.335 651.608,795.707 628.115,996.794Z" style="fill:rgb(255,70,0);"/>
        <path d="M635.18,950.015C559.202,909.637 507.417,829.665 507.417,737.694C507.417,605.082 615.081,497.417 747.693,497.417C796.01,497.417 841.016,511.71 878.708,536.294C754.293,639.545 665.873,784.696 635.18,950.015Z" style="fill:rgb(242,181,31);"/>
        <path d="M653.309,875.413C610.046,845.272 581.713,795.161 581.713,738.484C581.713,646.441 656.44,571.713 748.484,571.713C774.874,571.713 799.84,577.856 822.031,588.789C744.81,668.535 686.22,766.426 653.309,875.413Z" style="fill:rgb(255,70,0);"/>
        <path d="M668.653,830.23C642.538,807.898 625.974,774.715 625.974,737.694C625.974,670.515 680.515,615.975 747.693,615.975C762.719,615.975 777.113,618.704 790.406,623.692C738.823,684.561 697.368,754.278 668.653,830.23Z" style="fill:rgb(242,181,31);"/>
        <path d="M1945.48,1260.83C1901.91,1344.14 1883.15,1395.24 1831.12,1459.93C1721.8,1595.84 1550.3,1676.48 1328.82,1676.48C999.309,1676.48 731.785,1408.95 731.785,1079.44C731.785,749.924 999.309,482.4 1328.82,482.4C1416.2,482.4 1504.32,501.729 1583.68,538.296C1638.68,563.644 1707.76,561.494 1707.76,561.494C1713.05,561.336 1717.98,564.192 1720.47,568.865L1807.91,732.677C1810.22,736.998 1810.09,742.213 1807.57,746.413C1805.05,750.614 1800.51,753.185 1795.61,753.185L1602.79,753.185C1599.61,753.185 1596.52,752.094 1594.04,750.094C1521.48,691.569 1429.21,656.517 1328.82,656.517C1095.41,656.517 905.902,846.021 905.902,1079.44C905.902,1312.85 1095.41,1502.36 1328.82,1502.36C1516.92,1502.36 1679.67,1408.41 1749.7,1270.57C1749.86,1270.25 1796.22,1181.08 1814.64,1133.22C1850.58,1039.83 1955.81,745.611 1959.48,709.634C1960.87,696.085 1954.11,678.51 1946.25,662.095C1933.23,634.872 1915.91,610.954 1915.91,610.954C1912.84,606.71 1912.41,601.103 1914.79,596.438C1917.17,591.772 1921.97,588.835 1927.2,588.835L2261.3,588.814C2266.94,588.814 2272.02,592.213 2274.18,597.426C2276.34,602.639 2275.14,608.637 2271.15,612.623C2271.15,612.623 2251.53,632.227 2238.35,657.853C2230.43,673.265 2224.45,690.973 2228.66,707.593C2259.16,827.786 2443.68,1287.32 2457.73,1320.8C2464.54,1337 2478.87,1366.58 2499.72,1389.02C2512.22,1402.47 2527.03,1413.53 2544.35,1415.89C2567.94,1419.11 2586.35,1414.76 2600.18,1405.59C2621.01,1391.77 2631.26,1367.66 2634.06,1345.38C2648.05,1234.24 2634.34,781.122 2633.96,768.984C2627.47,670.913 2582.29,611.24 2582.29,611.24C2579.07,607.026 2578.52,601.35 2580.87,596.597C2583.22,591.843 2588.07,588.835 2593.37,588.835L3130.76,588.84C3229.3,582.537 3289.29,537.113 3289.29,537.113C3293.5,533.894 3299.18,533.345 3303.93,535.696C3308.68,538.047 3311.69,542.89 3311.69,548.193L3311.69,796.281C3311.69,801.584 3308.68,806.428 3303.93,808.779C3299.18,811.13 3293.5,810.581 3289.29,807.362C3289.29,807.362 3227.38,760.483 3126.03,755.364L2800.77,755.364L2800.77,955.9L3021.3,955.898C3122,950.501 3183.47,903.957 3183.47,903.957C3187.68,900.738 3193.36,900.189 3198.11,902.54C3202.86,904.89 3205.87,909.734 3205.87,915.037L3205.87,1163.12C3205.87,1168.43 3202.86,1173.27 3198.11,1175.62C3193.36,1177.97 3187.68,1177.42 3183.47,1174.21C3183.47,1174.21 3114.21,1121.76 3002.24,1121.76C2997.23,1121.76 2847.72,1121.51 2800.77,1121.43L2800.77,1405.34C2805.94,1506.57 2852.76,1568.4 2852.76,1568.4C2855.98,1572.61 2856.53,1578.29 2854.18,1583.04C2851.83,1587.8 2846.98,1590.8 2841.68,1590.8L2387.06,1590.7C2381.2,1590.7 2375.98,1587.05 2373.97,1581.55L2256.72,1260.83L1945.48,1260.83ZM2096.21,825.436L2008.64,1069.1L2186.54,1069.1L2096.21,825.436Z" style="fill:rgb(137,65,16);"/>
        <path d="M5770.4,588.84L6301.7,588.843C6399.49,582.236 6458.97,537.198 6458.97,537.198C6463.18,533.98 6468.86,533.43 6473.61,535.781C6478.36,538.132 6481.37,542.976 6481.37,548.279L6481.37,796.367C6481.37,801.67 6478.36,806.514 6473.61,808.864C6468.86,811.215 6463.18,810.666 6458.97,807.447C6458.97,807.447 6396.33,760.02 6293.93,755.364L5970.45,755.364L5970.45,955.9L6189.24,955.9C6290.97,950.946 6353.14,903.87 6353.14,903.87C6357.36,900.651 6363.03,900.102 6367.78,902.453C6372.54,904.803 6375.55,909.647 6375.55,914.95L6375.55,1163.04C6375.55,1168.34 6372.54,1173.18 6367.78,1175.54C6363.03,1177.89 6357.36,1177.34 6353.14,1174.12C6353.14,1174.12 6283.88,1121.67 6171.91,1121.67C6167.59,1121.67 6017.51,1121.49 5970.45,1121.43L5970.45,1423.79L6303.05,1423.79C6400.03,1416.86 6458.97,1372.24 6458.97,1372.24C6463.18,1369.02 6468.86,1368.47 6473.61,1370.82C6478.36,1373.17 6481.37,1378.02 6481.37,1383.32L6481.37,1631.41C6481.37,1636.71 6478.36,1641.56 6473.61,1643.91C6468.86,1646.26 6463.18,1645.71 6458.97,1642.49C6458.97,1642.49 6398.61,1596.79 6299.54,1590.7L5762.46,1590.56C5757.15,1590.56 5752.31,1587.55 5749.96,1582.8C5747.61,1578.05 5748.16,1572.37 5751.38,1568.16C5751.38,1568.16 5800.16,1503.74 5803.64,1398.75L5803.64,780.631C5800.15,675.644 5751.38,611.235 5751.38,611.235C5748.16,607.018 5747.61,601.339 5749.97,596.584C5752.32,591.829 5757.17,588.823 5762.48,588.83L5770.4,588.84Z" style="fill:rgb(137,65,16);"/>
        <path d="M7683.18,1160.54C7703.17,1151.68 7770.41,1127.05 7819.52,1127.05C8028.74,1127.05 8198.59,1296.9 8198.59,1506.12C8198.59,1715.34 8028.74,1885.19 7819.52,1885.19C7692.93,1885.19 7584.98,1816.24 7515.34,1727.66L7461.18,1660.85L7461.07,1660.7L7116.59,1223.7L6835.49,1585.22C6832.85,1588.62 6828.78,1590.61 6824.48,1590.61L6643.03,1590.61C6636.61,1590.61 6631.02,1586.22 6629.49,1579.98L6594.06,1435.34C6592.85,1430.41 6594.42,1425.21 6598.15,1421.77C6601.88,1418.33 6607.19,1417.19 6612.01,1418.79C6612.01,1418.79 6704.42,1448.01 6815.12,1340.34L7008.13,1088.22L6815.35,836.449C6704.55,728.515 6612.01,757.77 6612.01,757.77C6607.19,759.376 6601.88,758.236 6598.15,754.796C6594.42,751.355 6592.85,746.157 6594.06,741.226L6629.49,596.584C6631.02,590.346 6636.61,585.959 6643.03,585.959L6824.48,585.959C6828.78,585.959 6832.85,587.946 6835.49,591.343L7116.52,952.766L7397.46,591.345C7400.1,587.947 7404.16,585.959 7408.47,585.959L7590.05,585.958C7596.47,585.958 7602.06,590.345 7603.59,596.583L7639.02,741.226C7640.23,746.157 7638.66,751.355 7634.93,754.796C7631.19,758.236 7625.89,759.376 7621.07,757.77C7621.07,757.77 7528.36,728.464 7417.43,836.743L7224.74,1088.37C7271.14,1151.1 7563.93,1545.65 7660.49,1642.21C7705.44,1687.16 7755.95,1715.43 7819.52,1715.43C7935.04,1715.43 8028.83,1621.64 8028.83,1506.12C8028.83,1390.6 7935.04,1296.81 7819.52,1296.81C7750.94,1296.81 7690.03,1329.87 7651.84,1380.9C7649.26,1384.35 7645.22,1386.41 7640.92,1386.48C7636.61,1386.56 7632.51,1384.64 7629.81,1381.28L7509.57,1231.77C7506.37,1227.79 7505.6,1222.37 7507.58,1217.66C7509.55,1212.94 7513.94,1209.68 7519.03,1209.16C7519.03,1209.16 7590.08,1201.83 7683.18,1160.54Z" style="fill:rgb(137,65,16);"/>
        <path d="M3431.68,1590.56L3429.36,1590.56C3424.06,1590.57 3419.21,1587.56 3416.85,1582.81C3414.5,1578.05 3415.05,1572.37 3418.27,1568.16C3418.27,1568.16 3467.05,1503.74 3470.52,1398.75L3470.52,780.631C3467.04,675.644 3418.27,611.235 3418.27,611.235C3415.05,607.021 3414.5,601.345 3416.85,596.592C3419.2,591.838 3424.05,588.83 3429.35,588.83L3968.59,588.843C4066.38,582.236 4125.85,537.198 4125.85,537.198C4130.07,533.98 4135.74,533.43 4140.5,535.781C4145.25,538.132 4148.26,542.976 4148.26,548.279L4148.26,796.367C4148.26,801.67 4145.25,806.514 4140.5,808.864C4135.74,811.215 4130.07,810.666 4125.85,807.447C4125.85,807.447 4063.22,760.02 3960.82,755.364L3637.34,755.364L3637.34,955.9L3856.13,955.9C3957.86,950.946 4020.03,903.87 4020.03,903.87C4024.24,900.651 4029.92,900.102 4034.67,902.453C4039.43,904.803 4042.43,909.647 4042.43,914.95L4042.43,1163.04C4042.43,1168.34 4039.43,1173.18 4034.67,1175.54C4029.92,1177.89 4024.24,1177.34 4020.03,1174.12C4020.03,1174.12 3950.77,1121.67 3838.8,1121.67C3834.48,1121.67 3684.39,1121.49 3637.34,1121.43L3637.34,1423.79L3969.94,1423.79C4066.92,1416.86 4125.85,1372.24 4125.85,1372.24C4130.07,1369.02 4135.74,1368.47 4140.5,1370.82C4145.25,1373.17 4148.26,1378.02 4148.26,1383.32L4148.26,1631.41C4148.26,1636.71 4145.25,1641.56 4140.5,1643.91C4135.74,1646.26 4130.07,1645.71 4125.85,1642.49C4125.85,1642.49 4065.5,1596.79 3966.43,1590.7L3433.69,1590.7C3433.01,1590.7 3432.34,1590.66 3431.68,1590.56Z" style="fill:rgb(137,65,16);"/>
        <path d="M5442.35,1476.9L5442.35,856.635L5184.86,1383.15C5182.52,1387.93 5177.66,1390.97 5172.34,1390.97L5022.6,1390.97C5014.9,1390.97 5008.65,1384.73 5008.65,1377.03L5008.65,856.646L4611.62,1668.66C4609.28,1673.46 4604.38,1676.5 4599.03,1676.48L4382.57,1675.48C4376.17,1675.44 4370.61,1671.06 4369.09,1664.85L4334.86,1525.08C4333.71,1520.36 4335.09,1515.38 4338.52,1511.93C4341.95,1508.49 4346.93,1507.08 4351.65,1508.21C4351.65,1508.21 4379.8,1514.92 4412.62,1513.41C4433.48,1512.45 4456.4,1508.3 4474.59,1496.11C4520.89,1465.12 4538.26,1445.78 4556.79,1410.96C4644.25,1246.66 4994.81,515.282 4994.81,515.282C4997.13,510.444 5002.02,507.366 5007.38,507.366L5157.12,507.366C5164.82,507.366 5171.06,513.609 5171.06,521.309L5171.06,1041.7L5428.55,515.184C5430.89,510.4 5435.75,507.366 5441.08,507.366L5590.82,507.366C5598.52,507.366 5604.76,513.609 5604.76,521.309L5604.76,1476.9C5604.76,1586.36 5656.03,1654.07 5656.03,1654.07C5659.25,1658.29 5659.8,1663.96 5657.45,1668.71C5655.1,1673.47 5650.25,1676.48 5644.95,1676.48L5402.16,1676.48C5396.86,1676.48 5392.02,1673.47 5389.66,1668.71C5387.31,1663.96 5387.86,1658.29 5391.08,1654.07C5391.08,1654.07 5442.35,1586.36 5442.35,1476.9Z" style="fill:rgb(137,65,16);"/>
        <path d="M3652.96,527.693C3650.02,507.701 3831.85,378.81 3871.15,373.025C3910.46,367.239 3921.78,469.608 3888.81,492.981C3852.44,518.759 3655.91,547.686 3652.96,527.693Z" style="fill:rgb(137,65,16);"/>
    </g>
</svg>
