<?xml version="1.0" encoding="UTF-8" standalone="no"?>
<!DOCTYPE svg PUBLIC "-//W3C//DTD SVG 1.1//EN" "http://www.w3.org/Graphics/SVG/1.1/DTD/svg11.dtd">
<svg width="100%" height="100%" viewBox="0 0 1920 1895" version="1.1" xmlns="http://www.w3.org/2000/svg" xmlns:xlink="http://www.w3.org/1999/xlink" xml:space="preserve" xmlns:serif="http://www.serif.com/" style="fill-rule:evenodd;clip-rule:evenodd;stroke-linejoin:round;stroke-miterlimit:2;">
    <g>
        <path d="M120.144,1020.89L14.36,957.102C5.244,951.605 -0.232,941.649 0.008,931.007C0.247,920.365 6.164,910.665 15.517,905.582L123.531,846.895L33.224,762.94C25.43,755.695 22.11,744.833 24.519,734.469C26.929,724.104 34.701,715.821 44.891,712.757L162.573,677.372L90.625,577.306C84.418,568.674 83.301,557.381 87.695,547.699C92.09,538.018 101.325,531.424 111.91,530.413L234.501,518.7L186.068,405.997C181.875,396.241 183.212,384.988 189.572,376.486C195.933,367.983 206.35,363.524 216.893,364.791L339.302,379.507L316.107,259.895C314.088,249.485 317.774,238.789 325.776,231.833C333.778,224.876 344.883,222.714 354.91,226.161L471.77,266.331L472.905,143.373C473.003,132.784 478.733,123.048 487.943,117.822C497.153,112.596 508.45,112.67 517.591,118.017L624.399,180.495L651.435,60.687C653.763,50.368 661.406,42.067 671.498,38.896C681.59,35.725 692.607,38.162 700.42,45.294L791.606,128.536L843.58,17.139C848.05,7.558 857.278,1.077 867.807,0.122C878.336,-0.833 888.579,3.883 894.7,12.503L966.232,113.247L1038.69,14.449C1044.94,5.923 1055.26,1.365 1065.77,2.482C1076.28,3.599 1085.41,10.221 1089.73,19.87L1139.89,131.852L1231.67,50.633C1239.59,43.622 1250.65,41.355 1260.69,44.683C1270.73,48.011 1278.25,56.43 1280.41,66.785L1305.65,187.312L1413.27,126.783C1422.5,121.591 1433.8,121.708 1442.92,127.091C1452.04,132.475 1457.6,142.308 1457.52,152.898L1456.55,275.044L1573.91,238.181C1584.03,235.003 1595.07,237.462 1602.88,244.633C1610.7,251.804 1614.09,262.598 1611.79,272.951L1585.2,392.61L1708.62,380.668C1719.19,379.646 1729.5,384.346 1735.66,392.996C1741.82,401.647 1742.89,412.929 1738.47,422.585L1685.54,538.195L1815.4,552.276C1825.98,553.422 1835.13,560.133 1839.4,569.871C1843.67,579.609 1842.4,590.887 1836.09,599.44L1762.82,698.62L1880.63,737.231C1890.74,740.545 1898.3,749.018 1900.46,759.44C1902.61,769.861 1899.02,780.639 1891.05,787.689L1798.38,869.652L1905.18,931.474C1914.39,936.807 1920.05,946.664 1920,957.309C1919.95,967.953 1914.21,977.758 1904.95,983.006L1792.02,1047.01L1883.13,1129.88C1891.01,1137.04 1894.44,1147.87 1892.15,1158.26C1889.85,1168.65 1882.17,1177.02 1872.01,1180.19L1753.62,1217.19L1825.46,1317.33C1831.65,1325.97 1832.76,1337.26 1828.36,1346.94C1823.95,1356.62 1814.71,1363.2 1804.12,1364.2L1680.23,1375.91L1729.45,1488.41C1733.7,1498.14 1732.44,1509.4 1726.13,1517.95C1719.83,1526.49 1709.44,1531.02 1698.89,1529.82L1574.75,1515.7L1598.55,1636.56C1600.6,1646.97 1596.94,1657.67 1588.96,1664.65C1580.98,1671.63 1569.88,1673.83 1559.84,1670.41L1442.09,1630.31L1439.94,1753.46C1439.76,1764.05 1433.95,1773.73 1424.7,1778.88C1415.45,1784.04 1404.15,1783.87 1395.06,1778.45L1288.11,1714.72L1260.29,1834.57C1257.89,1844.88 1250.2,1853.13 1240.09,1856.24C1229.98,1859.35 1218.98,1856.84 1211.21,1849.66L1119.55,1764.95L1066.68,1877.27C1062.18,1886.84 1052.93,1893.29 1042.39,1894.2C1031.86,1895.12 1021.63,1890.37 1015.54,1881.73L944.176,1780.49L869.126,1879.02C862.719,1887.43 852.323,1891.8 841.831,1890.49C831.339,1889.18 822.334,1882.4 818.189,1872.67L769.648,1758.79L675.827,1839.54C667.808,1846.44 656.723,1848.55 646.727,1845.09C636.731,1841.62 629.335,1833.1 627.312,1822.71L603.821,1702.15L495.272,1762.19C486.004,1767.31 474.707,1767.12 465.625,1761.67C456.543,1756.22 451.05,1746.34 451.211,1735.75L453.078,1612.56L334.147,1648.85C324.003,1651.94 312.978,1649.39 305.224,1642.16C297.47,1634.92 294.164,1624.1 296.55,1613.77L324.303,1493.61L200.793,1504.57C190.213,1505.51 179.938,1500.72 173.845,1492.02C167.753,1483.33 166.77,1472.03 171.269,1462.41L223.104,1351.56L99.832,1336.87C89.273,1335.61 80.193,1328.8 76.028,1319.01C71.862,1309.23 73.245,1297.96 79.655,1289.48L154.014,1191.06L37.547,1151.51C27.47,1148.08 19.995,1139.53 17.954,1129.09C15.912,1118.64 19.616,1107.9 27.663,1100.94L120.144,1020.89Z" style="fill:rgb(255,70,0);"/>
        <circle cx="960" cy="947.159" r="765.174" style="fill:rgb(242,181,31);"/>
        <circle cx="960" cy="947.159" r="670.795" style="fill:rgb(255,70,0);"/>
        <circle cx="960" cy="947.159" r="612.951" style="fill:rgb(242,181,31);"/>
        <circle cx="960" cy="947.159" r="518.573" style="fill:rgb(255,70,0);"/>
        <circle cx="960" cy="947.159" r="460.728" style="fill:rgb(242,181,31);"/>
        <circle cx="960" cy="947.159" r="366.35" style="fill:rgb(255,70,0);"/>
        <circle cx="960" cy="947.159" r="308.505" style="fill:rgb(242,181,31);"/>
        <circle cx="961.015" cy="948.173" r="214.127" style="fill:rgb(255,70,0);"/>
        <circle cx="960" cy="947.159" r="156.282" style="fill:rgb(242,181,31);"/>
    </g>
</svg>
