<?xml version="1.0" encoding="UTF-8" standalone="no"?>
<!DOCTYPE svg PUBLIC "-//W3C//DTD SVG 1.1//EN" "http://www.w3.org/Graphics/SVG/1.1/DTD/svg11.dtd">
<svg width="100%" height="100%" viewBox="0 0 3073 2033" version="1.1" xmlns="http://www.w3.org/2000/svg" xmlns:xlink="http://www.w3.org/1999/xlink" xml:space="preserve" xmlns:serif="http://www.serif.com/" style="fill-rule:evenodd;clip-rule:evenodd;stroke-linejoin:round;stroke-miterlimit:2;">
    <g>
        <path d="M2522.25,1328.23C2522.29,1329.51 2522.34,1332.79 2522.39,1337.74C2522.9,1391.22 2524.19,1658.77 2524.19,1658.77L2524.19,1658.86C2524.19,1724.59 2550.06,1786.16 2595.16,1822.33C2676.99,1887.97 2796.72,1874.83 2862.36,1793C2928,1711.17 2914.86,1591.44 2833.03,1525.8C2784.45,1486.83 2722.51,1475.64 2666.46,1490.08C2661,1491.49 2655.2,1490.3 2650.74,1486.85C2646.28,1483.4 2643.66,1478.08 2643.66,1472.44L2643.47,1345.03L2643.47,1345.01L2643.43,1293.4C2643.43,1286.71 2647.08,1280.55 2652.96,1277.36C2658.84,1274.16 2665.99,1274.43 2671.6,1278.07C2671.6,1278.07 2727.05,1313.8 2817.97,1337.85C2838.02,1343.16 2902.37,1364.91 2938.7,1394.06C3093.24,1518.03 3118.07,1744.14 2994.1,1898.68C2870.13,2053.22 2644.02,2078.04 2489.48,1954.07C2396.16,1879.21 2357.99,1794.06 2355.65,1656.1L2355.65,1655.72C2355.65,1655.72 2356.73,1392.2 2357.31,1339.51C2357.36,1334.91 2357.43,1331.72 2357.48,1330.18L2357.48,857.907L2121.37,1340.7C2118.31,1346.97 2111.95,1350.94 2104.98,1350.94L1962.2,1350.94C1952.12,1350.94 1943.95,1342.77 1943.95,1332.69L1943.95,864.098C1897.38,965.478 1811.6,1144.75 1732.07,1271.27C1711.56,1303.91 1691.43,1333.08 1672.49,1356.63C1561.46,1494.67 1411.25,1566.9 1234.1,1566.9C923.727,1566.9 671.745,1314.92 671.745,1004.55C671.745,694.179 923.727,442.197 1234.1,442.197C1316.38,442.197 1399.37,460.399 1474.1,494.837C1524.38,518.008 1587.54,516.004 1587.54,516.004C1594.47,515.798 1600.91,519.536 1604.18,525.652L1685.77,678.51C1688.79,684.166 1688.62,690.992 1685.32,696.49C1682.02,701.989 1676.08,705.353 1669.67,705.353L1489.74,705.353C1485.58,705.353 1481.53,703.926 1478.29,701.308C1411.48,647.423 1326.53,615.15 1234.1,615.15C1019.18,615.15 844.698,789.634 844.698,1004.55C844.698,1219.46 1019.18,1393.95 1234.1,1393.95C1377.65,1393.95 1505.12,1299.95 1582.39,1178.97C1657.82,1060.88 1931.34,508.659 1931.34,508.659C1934.42,502.443 1940.76,498.511 1947.7,498.511L2090.47,498.511C2100.55,498.511 2108.72,506.682 2108.72,516.761L2108.72,991.54L2344.83,508.743C2347.89,502.482 2354.26,498.511 2361.23,498.511L2504,498.511C2514.08,498.511 2522.25,506.682 2522.25,516.761L2522.25,1328.23Z" style="fill:rgb(137,65,16);"/>
        <path d="M663.665,1325.6L632.234,1366.87C627.574,1372.99 620.011,1376.16 612.379,1375.21C604.747,1374.26 598.196,1369.33 595.18,1362.25L559.87,1279.41L491.621,1338.15C485.788,1343.17 477.724,1344.7 470.453,1342.18C463.182,1339.66 457.802,1333.46 456.33,1325.91L439.241,1238.21L360.279,1281.88C353.537,1285.61 345.319,1285.46 338.713,1281.5C332.106,1277.54 328.111,1270.36 328.227,1262.65L329.586,1173.04L243.071,1199.43C235.692,1201.68 227.672,1199.83 222.031,1194.57C216.39,1189.3 213.985,1181.43 215.722,1173.91L235.91,1086.5L146.064,1094.48C138.368,1095.16 130.894,1091.68 126.462,1085.35C122.029,1079.03 121.315,1070.81 124.588,1063.81L162.294,983.176L72.622,972.485C64.941,971.569 58.336,966.616 55.305,959.499C52.275,952.382 53.281,944.188 57.944,938.016L112.036,866.42L27.313,837.647C19.983,835.158 14.545,828.936 13.06,821.338C11.575,813.74 14.27,805.929 20.123,800.862L87.397,742.633L10.446,696.231C3.815,692.232 -0.168,684.99 0.005,677.248C0.179,669.507 4.484,662.451 11.288,658.754L89.861,616.062L24.168,554.991C18.499,549.72 16.083,541.819 17.836,534.279C19.589,526.74 25.243,520.714 32.656,518.486L118.262,492.745L65.924,419.954C61.409,413.674 60.596,405.46 63.793,398.417C66.989,391.374 73.708,386.578 81.407,385.842L170.585,377.321L135.353,295.337C132.303,288.24 133.275,280.055 137.902,273.869C142.529,267.684 150.107,264.441 157.776,265.363L246.821,276.067L229.948,189.057C228.479,181.485 231.16,173.704 236.981,168.644C242.802,163.583 250.88,162.01 258.175,164.518L343.183,193.739L344.009,104.295C344.08,96.592 348.248,89.51 354.948,85.708C361.648,81.906 369.865,81.96 376.514,85.85L454.21,131.299L473.878,44.146C475.571,36.64 481.131,30.601 488.472,28.294C495.813,25.987 503.828,27.76 509.511,32.948L575.843,93.502L613.651,12.468C616.903,5.498 623.615,0.783 631.275,0.089C638.934,-0.606 646.385,2.824 650.838,9.095L702.873,82.38L755.58,10.511C760.128,4.309 767.631,0.993 775.279,1.806C782.927,2.618 789.567,7.435 792.711,14.454L829.201,95.914L895.963,36.832C901.727,31.732 909.768,30.083 917.073,32.504C924.378,34.925 929.843,41.049 931.42,48.582L949.775,136.258L1028.06,92.226C1034.78,88.45 1043,88.535 1049.63,92.451C1056.27,96.367 1060.31,103.52 1060.25,111.224L1059.55,200.077L1144.92,173.262C1152.28,170.95 1160.31,172.739 1166,177.955C1171.68,183.172 1174.15,191.024 1172.48,198.555L1153.13,285.599L1242.91,276.912C1250.6,276.168 1258.1,279.588 1262.58,285.88C1267.07,292.172 1267.85,300.38 1264.63,307.404L1245.47,349.242C1244.01,349.232 1242.55,349.227 1241.09,349.227C877.427,349.227 582.177,644.477 582.177,1008.14C582.177,1123.21 611.734,1231.42 663.665,1325.6Z" style="fill:rgb(255,70,0);"/>
        <path d="M624.473,1240.75C352.132,1204.57 141.724,971.162 141.724,688.998C141.724,381.793 391.135,132.382 698.339,132.382C880.84,132.382 1042.94,220.404 1144.48,356.273C826.544,403.071 582.177,677.294 582.177,1008.14C582.177,1090.01 597.138,1168.4 624.473,1240.75Z" style="fill:rgb(242,181,31);"/>
        <path d="M601.573,1167.35C378.546,1122.4 210.378,925.185 210.378,688.998C210.378,419.685 429.026,201.037 698.339,201.037C846.659,201.037 979.611,267.354 1069.14,371.929C788.745,447.636 582.177,703.956 582.177,1008.14C582.177,1063.03 588.902,1116.36 601.573,1167.35Z" style="fill:rgb(255,70,0);"/>
        <path d="M592.014,1122.1C397.189,1074.37 252.456,898.451 252.456,688.998C252.456,442.908 452.25,243.115 698.339,243.115C827.268,243.115 943.49,297.955 1024.93,385.561C767.302,475.11 582.177,720.177 582.177,1008.14C582.177,1047 585.548,1085.08 592.014,1122.1Z" style="fill:rgb(242,181,31);"/>
        <path d="M583.386,1048.36C431.328,999.699 321.11,857.118 321.11,688.998C321.11,480.8 490.141,311.769 698.339,311.769C798.079,311.769 888.829,350.561 956.313,413.868C735.063,520.183 582.177,746.449 582.177,1008.14C582.177,1021.65 582.584,1035.06 583.386,1048.36Z" style="fill:rgb(255,70,0);"/>
        <path d="M582.193,1003.44C454.392,956.166 363.189,833.149 363.189,688.998C363.189,504.023 513.365,353.847 698.339,353.847C781.642,353.847 857.888,384.305 916.538,434.683C718.222,547.246 583.899,759.709 582.193,1003.44Z" style="fill:rgb(242,181,31);"/>
        <path d="M586.653,930.997C495.29,888.72 431.843,796.21 431.843,688.998C431.843,541.915 551.256,422.502 698.339,422.502C757.122,422.502 811.485,441.575 855.572,473.865C709.655,579.385 608.596,743.182 586.653,930.997Z" style="fill:rgb(255,70,0);"/>
        <path d="M593.252,887.306C522.289,849.592 473.921,774.899 473.921,688.998C473.921,565.138 574.48,464.58 698.339,464.58C743.467,464.58 785.502,477.929 820.707,500.891C704.503,597.327 621.919,732.898 593.252,887.306Z" style="fill:rgb(242,181,31);"/>
        <path d="M610.185,817.627C569.777,789.475 543.314,742.672 543.314,689.736C543.314,603.768 613.109,533.972 699.077,533.972C723.726,533.972 747.045,539.71 767.77,549.921C695.647,624.403 640.923,715.833 610.185,817.627Z" style="fill:rgb(255,70,0);"/>
        <path d="M624.515,775.427C600.124,754.569 584.654,723.576 584.654,688.998C584.654,626.253 635.595,575.312 698.339,575.312C712.374,575.312 725.817,577.861 738.233,582.52C690.055,639.371 651.335,704.487 624.515,775.427Z" style="fill:rgb(242,181,31);"/>
    </g>
</svg>
