<?xml version="1.0" encoding="UTF-8" standalone="no"?>
<!DOCTYPE svg PUBLIC "-//W3C//DTD SVG 1.1//EN" "http://www.w3.org/Graphics/SVG/1.1/DTD/svg11.dtd">
<svg width="100%" height="100%" viewBox="0 0 7467 1513" version="1.1" xmlns="http://www.w3.org/2000/svg" xmlns:xlink="http://www.w3.org/1999/xlink" xml:space="preserve" xmlns:serif="http://www.serif.com/" style="fill-rule:evenodd;clip-rule:evenodd;stroke-linejoin:round;stroke-miterlimit:2;">
    <g>
        <path d="M1213.69,888.037C1170.12,971.353 1151.36,1022.45 1099.33,1087.14C990.01,1223.05 818.508,1303.68 597.033,1303.68C267.519,1303.68 -0.005,1036.16 -0.005,706.647C-0.005,377.133 267.519,109.61 597.033,109.61C684.407,109.61 772.533,128.938 851.887,165.506C906.892,190.853 975.968,188.703 975.968,188.703C981.263,188.546 986.189,191.401 988.683,196.074L1076.12,359.886C1078.43,364.207 1078.3,369.422 1075.78,373.623C1073.26,377.824 1068.72,380.394 1063.82,380.394L871.001,380.394C867.816,380.394 864.726,379.304 862.247,377.304C789.688,318.779 697.421,283.726 597.033,283.726C363.617,283.726 174.112,473.231 174.112,706.647C174.112,940.064 363.617,1129.57 597.033,1129.57C785.128,1129.57 947.876,1035.62 1017.91,897.779C1018.07,897.46 1064.43,808.29 1082.85,760.426C1118.79,667.038 1224.02,372.82 1227.69,336.843C1229.08,323.294 1222.32,305.72 1214.46,289.304C1201.43,262.082 1184.12,238.163 1184.12,238.163C1181.05,233.92 1180.62,228.313 1183,223.647C1185.38,218.981 1190.18,216.045 1195.41,216.044L1529.51,216.024C1535.15,216.023 1540.23,219.422 1542.39,224.635C1544.55,229.848 1543.35,235.847 1539.36,239.833C1539.36,239.833 1519.74,259.437 1506.56,285.062C1498.64,300.474 1492.66,318.183 1496.87,334.803C1527.38,454.996 1711.89,914.531 1725.94,948.011C1732.75,964.212 1747.08,993.784 1767.93,1016.23C1780.42,1029.68 1795.24,1040.74 1812.56,1043.1C1836.15,1046.32 1854.56,1041.96 1868.39,1032.8C1889.22,1018.98 1899.47,994.869 1902.27,972.586C1916.26,861.452 1902.55,408.331 1902.17,396.194C1895.68,298.122 1850.5,238.449 1850.5,238.449C1847.28,234.235 1846.73,228.559 1849.08,223.806C1851.43,219.053 1856.28,216.044 1861.58,216.044L2398.97,216.05C2497.51,209.747 2557.5,164.322 2557.5,164.322C2561.71,161.104 2567.39,160.554 2572.14,162.905C2576.89,165.256 2579.9,170.1 2579.9,175.403L2579.9,423.491C2579.9,428.794 2576.89,433.637 2572.14,435.988C2567.39,438.339 2561.71,437.79 2557.5,434.571C2557.5,434.571 2495.59,387.692 2394.24,382.573L2068.98,382.573L2068.98,583.109L2289.51,583.108C2390.21,577.711 2451.68,531.166 2451.68,531.166C2455.89,527.947 2461.57,527.398 2466.32,529.749C2471.07,532.1 2474.08,536.944 2474.08,542.247L2474.08,790.335C2474.08,795.638 2471.07,800.481 2466.32,802.832C2461.57,805.183 2455.89,804.634 2451.68,801.415C2451.68,801.415 2382.42,748.965 2270.45,748.965C2265.44,748.965 2115.93,748.719 2068.98,748.642L2068.98,1032.55C2074.15,1133.78 2120.97,1195.61 2120.97,1195.61C2124.19,1199.82 2124.74,1205.5 2122.39,1210.25C2120.04,1215.01 2115.19,1218.01 2109.89,1218.01L1655.27,1217.91C1649.41,1217.91 1644.19,1214.26 1642.18,1208.76L1524.93,888.037L1213.69,888.037ZM1364.42,452.646L1276.85,696.31L1454.75,696.31L1364.42,452.646Z" style="fill:rgb(137,65,16);"/>
        <path d="M5038.61,216.05L5569.91,216.052C5667.7,209.445 5727.18,164.408 5727.18,164.408C5731.39,161.189 5737.07,160.64 5741.82,162.991C5746.57,165.342 5749.58,170.185 5749.58,175.488L5749.58,423.576C5749.58,428.879 5746.57,433.723 5741.82,436.074C5737.07,438.425 5731.39,437.875 5727.18,434.657C5727.18,434.657 5664.54,387.23 5562.14,382.573L5238.66,382.573L5238.66,583.109L5457.45,583.109C5559.18,578.156 5621.35,531.079 5621.35,531.079C5625.57,527.86 5631.24,527.311 5635.99,529.662C5640.75,532.013 5643.76,536.857 5643.76,542.16L5643.76,790.248C5643.76,795.551 5640.75,800.394 5635.99,802.745C5631.24,805.096 5625.57,804.547 5621.35,801.328C5621.35,801.328 5552.09,748.878 5440.12,748.878C5435.8,748.878 5285.72,748.694 5238.66,748.636L5238.66,1051L5571.26,1051C5668.24,1044.07 5727.18,999.449 5727.18,999.449C5731.39,996.231 5737.07,995.681 5741.82,998.032C5746.57,1000.38 5749.58,1005.23 5749.58,1010.53L5749.58,1258.62C5749.58,1263.92 5746.57,1268.76 5741.82,1271.12C5737.07,1273.47 5731.39,1272.92 5727.18,1269.7C5727.18,1269.7 5666.82,1224 5567.75,1217.91L5030.67,1217.77C5025.36,1217.77 5020.52,1214.76 5018.17,1210.01C5015.82,1205.26 5016.37,1199.58 5019.59,1195.37C5019.59,1195.37 5068.37,1130.95 5071.85,1025.96L5071.85,407.84C5068.36,302.854 5019.59,238.445 5019.59,238.445C5016.37,234.228 5015.82,228.548 5018.18,223.793C5020.53,219.038 5025.38,216.033 5030.69,216.04L5038.61,216.05Z" style="fill:rgb(137,65,16);"/>
        <path d="M6951.39,787.751C6971.38,778.887 7038.62,754.257 7087.73,754.257C7296.95,754.257 7466.81,924.113 7466.81,1133.33C7466.81,1342.55 7296.95,1512.4 7087.73,1512.4C6961.14,1512.4 6853.19,1443.45 6783.55,1354.87L6729.39,1288.06L6729.28,1287.91L6384.8,850.91L6103.7,1212.43C6101.06,1215.83 6096.99,1217.82 6092.69,1217.82L5911.24,1217.82C5904.82,1217.82 5899.23,1213.43 5897.7,1207.19L5862.27,1062.55C5861.06,1057.62 5862.63,1052.42 5866.36,1048.98C5870.09,1045.54 5875.4,1044.4 5880.22,1046C5880.22,1046 5972.63,1075.22 6083.33,967.548L6276.34,715.426L6083.56,463.658C5972.76,355.725 5880.22,384.98 5880.22,384.98C5875.4,386.585 5870.09,385.446 5866.36,382.005C5862.63,378.564 5861.06,373.366 5862.27,368.435L5897.7,223.793C5899.23,217.555 5904.82,213.168 5911.24,213.168L6092.69,213.169C6096.99,213.169 6101.06,215.156 6103.7,218.553L6384.73,579.976L6665.67,218.554C6668.31,215.156 6672.37,213.169 6676.68,213.169L6858.26,213.168C6864.68,213.168 6870.27,217.555 6871.8,223.793L6907.23,368.435C6908.44,373.367 6906.87,378.564 6903.14,382.005C6899.4,385.446 6894.1,386.585 6889.28,384.98C6889.28,384.98 6796.57,355.673 6685.64,463.952L6492.95,715.576C6539.35,778.311 6832.14,1172.86 6928.7,1269.42C6973.65,1314.37 7024.16,1342.64 7087.73,1342.64C7203.25,1342.64 7297.04,1248.85 7297.04,1133.33C7297.04,1017.81 7203.25,924.019 7087.73,924.019C7019.15,924.019 6958.24,957.077 6920.05,1008.11C6917.47,1011.56 6913.43,1013.62 6909.13,1013.69C6904.82,1013.77 6900.72,1011.85 6898.02,1008.49L6777.78,858.983C6774.58,854.999 6773.81,849.582 6775.79,844.865C6777.76,840.149 6782.15,836.891 6787.24,836.374C6787.24,836.374 6858.29,829.035 6951.39,787.751Z" style="fill:rgb(137,65,16);"/>
        <path d="M2699.89,1217.77L2697.57,1217.77C2692.27,1217.78 2687.42,1214.77 2685.06,1210.02C2682.71,1205.26 2683.26,1199.58 2686.48,1195.37C2686.48,1195.37 2735.26,1130.95 2738.73,1025.96L2738.73,407.84C2735.25,302.854 2686.48,238.445 2686.48,238.445C2683.26,234.23 2682.71,228.555 2685.06,223.801C2687.41,219.048 2692.26,216.039 2697.56,216.04L3236.8,216.052C3334.59,209.445 3394.06,164.408 3394.06,164.408C3398.28,161.189 3403.95,160.64 3408.71,162.991C3413.46,165.342 3416.47,170.185 3416.47,175.488L3416.47,423.576C3416.47,428.879 3413.46,433.723 3408.71,436.074C3403.95,438.425 3398.28,437.875 3394.06,434.657C3394.06,434.657 3331.43,387.23 3229.03,382.573L2905.55,382.573L2905.55,583.109L3124.34,583.109C3226.07,578.156 3288.24,531.079 3288.24,531.079C3292.45,527.86 3298.13,527.311 3302.88,529.662C3307.64,532.013 3310.64,536.857 3310.64,542.16L3310.64,790.248C3310.64,795.551 3307.64,800.394 3302.88,802.745C3298.13,805.096 3292.45,804.547 3288.24,801.328C3288.24,801.328 3218.98,748.878 3107.01,748.878C3102.69,748.878 2952.6,748.694 2905.55,748.636L2905.55,1051L3238.15,1051C3335.13,1044.07 3394.06,999.449 3394.06,999.449C3398.28,996.231 3403.95,995.681 3408.71,998.032C3413.46,1000.38 3416.47,1005.23 3416.47,1010.53L3416.47,1258.62C3416.47,1263.92 3413.46,1268.76 3408.71,1271.12C3403.95,1273.47 3398.28,1272.92 3394.06,1269.7C3394.06,1269.7 3333.71,1224 3234.64,1217.91L2701.9,1217.91C2701.22,1217.91 2700.55,1217.87 2699.89,1217.77Z" style="fill:rgb(137,65,16);"/>
        <path d="M4710.56,1104.11L4710.56,483.844L4453.07,1010.36C4450.73,1015.14 4445.87,1018.18 4440.55,1018.18L4290.81,1018.18C4283.11,1018.18 4276.86,1011.94 4276.86,1004.24L4276.86,483.855L3879.84,1295.87C3877.49,1300.67 3872.59,1303.71 3867.24,1303.68L3650.78,1302.68C3644.38,1302.65 3638.82,1298.27 3637.3,1292.06L3603.07,1152.29C3601.92,1147.57 3603.3,1142.59 3606.73,1139.14C3610.16,1135.69 3615.14,1134.28 3619.87,1135.42C3619.87,1135.42 3648.01,1142.13 3680.83,1140.62C3701.69,1139.66 3724.61,1135.5 3742.8,1123.32C3789.1,1092.33 3806.47,1072.99 3825,1038.17C3912.46,873.866 4263.02,142.492 4263.02,142.492C4265.34,137.654 4270.23,134.576 4275.59,134.576L4425.33,134.576C4433.03,134.576 4439.27,140.818 4439.27,148.518L4439.27,668.91L4696.76,142.393C4699.1,137.609 4703.96,134.576 4709.29,134.576L4859.03,134.576C4866.73,134.576 4872.97,140.818 4872.97,148.518L4872.97,1104.11C4872.97,1213.57 4924.24,1281.28 4924.24,1281.28C4927.46,1285.49 4928.01,1291.17 4925.66,1295.92C4923.31,1300.68 4918.46,1303.68 4913.16,1303.68L4670.37,1303.68C4665.07,1303.68 4660.23,1300.68 4657.87,1295.92C4655.52,1291.17 4656.07,1285.49 4659.29,1281.28C4659.29,1281.28 4710.56,1213.57 4710.56,1104.11Z" style="fill:rgb(137,65,16);"/>
        <path d="M2921.17,154.903C2918.23,134.91 3100.06,6.019 3139.36,0.234C3178.67,-5.551 3189.99,96.817 3157.02,120.19C3120.65,145.968 2924.12,174.895 2921.17,154.903Z" style="fill:rgb(137,65,16);"/>
    </g>
</svg>
